<svg width="364" height="48" viewBox="0 0 364 48" fill="none" xmlns="http://www.w3.org/2000/svg">
<rect x="0.5" y="0.5" width="363" height="47" rx="5.5" stroke="#145DB8" stroke-dasharray="11 11"/>
<path d="M118.5 25H113.5C113.217 25 112.979 24.904 112.788 24.712C112.597 24.52 112.501 24.2827 112.5 24C112.499 23.7173 112.595 23.48 112.788 23.288C112.981 23.096 113.218 23 113.5 23H118.5V18C118.5 17.7167 118.596 17.4793 118.788 17.288C118.98 17.0967 119.217 17.0007 119.5 17C119.783 16.9993 120.02 17.0953 120.213 17.288C120.406 17.4807 120.501 17.718 120.5 18V23H125.5C125.783 23 126.021 23.096 126.213 23.288C126.405 23.48 126.501 23.7173 126.5 24C126.499 24.2827 126.403 24.5203 126.212 24.713C126.021 24.9057 125.783 25.0013 125.5 25H120.5V30C120.5 30.2833 120.404 30.521 120.212 30.713C120.02 30.905 119.783 31.0007 119.5 31C119.217 30.9993 118.98 30.9033 118.788 30.712C118.596 30.5207 118.5 30.2833 118.5 30V25Z" fill="#145DB8"/>
<path d="M139.484 30L144.556 18.8H146.14L151.228 30H149.548L145.02 19.696H145.66L141.132 30H139.484ZM141.644 27.2L142.076 25.92H148.38L148.844 27.2H141.644ZM156.101 30.096C155.279 30.096 154.543 29.9147 153.893 29.552C153.253 29.1893 152.746 28.6827 152.373 28.032C151.999 27.3813 151.813 26.624 151.813 25.76C151.813 24.896 151.999 24.144 152.373 23.504C152.746 22.8533 153.253 22.3467 153.893 21.984C154.543 21.6213 155.279 21.44 156.101 21.44C156.815 21.44 157.461 21.6 158.037 21.92C158.613 22.24 159.071 22.72 159.413 23.36C159.765 24 159.941 24.8 159.941 25.76C159.941 26.72 159.77 27.52 159.429 28.16C159.098 28.8 158.645 29.2853 158.069 29.616C157.493 29.936 156.837 30.096 156.101 30.096ZM156.229 28.752C156.762 28.752 157.242 28.6293 157.669 28.384C158.106 28.1387 158.447 27.792 158.693 27.344C158.949 26.8853 159.077 26.3573 159.077 25.76C159.077 25.152 158.949 24.6293 158.693 24.192C158.447 23.744 158.106 23.3973 157.669 23.152C157.242 22.9067 156.762 22.784 156.229 22.784C155.685 22.784 155.199 22.9067 154.773 23.152C154.346 23.3973 154.005 23.744 153.749 24.192C153.493 24.6293 153.365 25.152 153.365 25.76C153.365 26.3573 153.493 26.8853 153.749 27.344C154.005 27.792 154.346 28.1387 154.773 28.384C155.199 28.6293 155.685 28.752 156.229 28.752ZM159.125 30V27.712L159.221 25.744L159.061 23.776V18.128H160.597V30H159.125ZM167.007 30.096C166.186 30.096 165.45 29.9147 164.799 29.552C164.159 29.1893 163.652 28.6827 163.279 28.032C162.906 27.3813 162.719 26.624 162.719 25.76C162.719 24.896 162.906 24.144 163.279 23.504C163.652 22.8533 164.159 22.3467 164.799 21.984C165.45 21.6213 166.186 21.44 167.007 21.44C167.722 21.44 168.367 21.6 168.943 21.92C169.519 22.24 169.978 22.72 170.319 23.36C170.671 24 170.847 24.8 170.847 25.76C170.847 26.72 170.676 27.52 170.335 28.16C170.004 28.8 169.551 29.2853 168.975 29.616C168.399 29.936 167.743 30.096 167.007 30.096ZM167.135 28.752C167.668 28.752 168.148 28.6293 168.575 28.384C169.012 28.1387 169.354 27.792 169.599 27.344C169.855 26.8853 169.983 26.3573 169.983 25.76C169.983 25.152 169.855 24.6293 169.599 24.192C169.354 23.744 169.012 23.3973 168.575 23.152C168.148 22.9067 167.668 22.784 167.135 22.784C166.591 22.784 166.106 22.9067 165.679 23.152C165.252 23.3973 164.911 23.744 164.655 24.192C164.399 24.6293 164.271 25.152 164.271 25.76C164.271 26.3573 164.399 26.8853 164.655 27.344C164.911 27.792 165.252 28.1387 165.679 28.384C166.106 28.6293 166.591 28.752 167.135 28.752ZM170.031 30V27.712L170.127 25.744L169.967 23.776V18.128H171.503V30H170.031ZM183.234 21.44C183.927 21.44 184.535 21.5733 185.058 21.84C185.591 22.1067 186.007 22.512 186.306 23.056C186.605 23.6 186.754 24.288 186.754 25.12V30H185.218V25.296C185.218 24.4747 185.015 23.856 184.61 23.44C184.215 23.024 183.655 22.816 182.93 22.816C182.386 22.816 181.911 22.9227 181.506 23.136C181.101 23.3493 180.786 23.664 180.562 24.08C180.349 24.496 180.242 25.0133 180.242 25.632V30H178.706V21.52H180.178V23.808L179.938 23.2C180.215 22.6453 180.642 22.2133 181.218 21.904C181.794 21.5947 182.466 21.44 183.234 21.44ZM193.373 30.096C192.466 30.096 191.666 29.9093 190.973 29.536C190.29 29.1627 189.757 28.6507 189.373 28C188.999 27.3493 188.813 26.6027 188.813 25.76C188.813 24.9173 188.994 24.1707 189.357 23.52C189.73 22.8693 190.237 22.3627 190.877 22C191.527 21.6267 192.258 21.44 193.069 21.44C193.89 21.44 194.615 21.6213 195.245 21.984C195.874 22.3467 196.365 22.8587 196.717 23.52C197.079 24.1707 197.261 24.9333 197.261 25.808C197.261 25.872 197.255 25.9467 197.245 26.032C197.245 26.1173 197.239 26.1973 197.229 26.272H190.013V25.168H196.429L195.805 25.552C195.815 25.008 195.703 24.5227 195.469 24.096C195.234 23.6693 194.909 23.3387 194.493 23.104C194.087 22.8587 193.613 22.736 193.069 22.736C192.535 22.736 192.061 22.8587 191.645 23.104C191.229 23.3387 190.903 23.6747 190.669 24.112C190.434 24.5387 190.317 25.0293 190.317 25.584V25.84C190.317 26.4053 190.445 26.912 190.701 27.36C190.967 27.7973 191.335 28.1387 191.805 28.384C192.274 28.6293 192.813 28.752 193.421 28.752C193.922 28.752 194.375 28.6667 194.781 28.496C195.197 28.3253 195.559 28.0693 195.869 27.728L196.717 28.72C196.333 29.168 195.853 29.5093 195.277 29.744C194.711 29.9787 194.077 30.096 193.373 30.096ZM201.029 30L197.877 21.52H199.333L202.133 29.2H201.445L204.357 21.52H205.653L208.501 29.2H207.829L210.693 21.52H212.069L208.901 30H207.429L204.757 22.992H205.205L202.501 30H201.029ZM221.621 30.096C220.757 30.096 219.983 29.9093 219.301 29.536C218.629 29.1627 218.101 28.6507 217.717 28C217.333 27.3493 217.141 26.6027 217.141 25.76C217.141 24.9173 217.333 24.1707 217.717 23.52C218.101 22.8693 218.629 22.3627 219.301 22C219.983 21.6267 220.757 21.44 221.621 21.44C222.389 21.44 223.071 21.5947 223.669 21.904C224.277 22.2027 224.746 22.6507 225.077 23.248L223.909 24C223.631 23.584 223.29 23.28 222.885 23.088C222.49 22.8853 222.063 22.784 221.605 22.784C221.05 22.784 220.554 22.9067 220.117 23.152C219.679 23.3973 219.333 23.744 219.077 24.192C218.821 24.6293 218.693 25.152 218.693 25.76C218.693 26.368 218.821 26.896 219.077 27.344C219.333 27.792 219.679 28.1387 220.117 28.384C220.554 28.6293 221.05 28.752 221.605 28.752C222.063 28.752 222.49 28.656 222.885 28.464C223.29 28.2613 223.631 27.952 223.909 27.536L225.077 28.272C224.746 28.8587 224.277 29.312 223.669 29.632C223.071 29.9413 222.389 30.096 221.621 30.096ZM232.329 30V28.208L232.249 27.872V24.816C232.249 24.1653 232.057 23.664 231.673 23.312C231.3 22.9493 230.735 22.768 229.977 22.768C229.476 22.768 228.985 22.8533 228.505 23.024C228.025 23.184 227.62 23.4027 227.289 23.68L226.649 22.528C227.087 22.176 227.609 21.9093 228.217 21.728C228.836 21.536 229.481 21.44 230.153 21.44C231.316 21.44 232.212 21.7227 232.841 22.288C233.471 22.8533 233.785 23.7173 233.785 24.88V30H232.329ZM229.545 30.096C228.916 30.096 228.361 29.9893 227.881 29.776C227.412 29.5627 227.049 29.2693 226.793 28.896C226.537 28.512 226.409 28.08 226.409 27.6C226.409 27.1413 226.516 26.7253 226.729 26.352C226.953 25.9787 227.311 25.68 227.801 25.456C228.303 25.232 228.975 25.12 229.817 25.12H232.505V26.224H229.881C229.113 26.224 228.596 26.352 228.329 26.608C228.063 26.864 227.929 27.1733 227.929 27.536C227.929 27.952 228.095 28.288 228.425 28.544C228.756 28.7893 229.215 28.912 229.801 28.912C230.377 28.912 230.879 28.784 231.305 28.528C231.743 28.272 232.057 27.8987 232.249 27.408L232.553 28.464C232.351 28.9653 231.993 29.3653 231.481 29.664C230.969 29.952 230.324 30.096 229.545 30.096ZM236.628 30V21.52H238.1V23.824L237.956 23.248C238.191 22.6613 238.585 22.2133 239.14 21.904C239.695 21.5947 240.377 21.44 241.188 21.44V22.928C241.124 22.9173 241.06 22.912 240.996 22.912C240.943 22.912 240.889 22.912 240.836 22.912C240.015 22.912 239.364 23.1573 238.884 23.648C238.404 24.1387 238.164 24.848 238.164 25.776V30H236.628ZM246.507 30.096C245.686 30.096 244.95 29.9147 244.299 29.552C243.659 29.1893 243.152 28.6827 242.779 28.032C242.406 27.3813 242.219 26.624 242.219 25.76C242.219 24.896 242.406 24.144 242.779 23.504C243.152 22.8533 243.659 22.3467 244.299 21.984C244.95 21.6213 245.686 21.44 246.507 21.44C247.222 21.44 247.867 21.6 248.443 21.92C249.019 22.24 249.478 22.72 249.819 23.36C250.171 24 250.347 24.8 250.347 25.76C250.347 26.72 250.176 27.52 249.835 28.16C249.504 28.8 249.051 29.2853 248.475 29.616C247.899 29.936 247.243 30.096 246.507 30.096ZM246.635 28.752C247.168 28.752 247.648 28.6293 248.075 28.384C248.512 28.1387 248.854 27.792 249.099 27.344C249.355 26.8853 249.483 26.3573 249.483 25.76C249.483 25.152 249.355 24.6293 249.099 24.192C248.854 23.744 248.512 23.3973 248.075 23.152C247.648 22.9067 247.168 22.784 246.635 22.784C246.091 22.784 245.606 22.9067 245.179 23.152C244.752 23.3973 244.411 23.744 244.155 24.192C243.899 24.6293 243.771 25.152 243.771 25.76C243.771 26.3573 243.899 26.8853 244.155 27.344C244.411 27.792 244.752 28.1387 245.179 28.384C245.606 28.6293 246.091 28.752 246.635 28.752ZM249.531 30V27.712L249.627 25.744L249.467 23.776V18.128H251.003V30H249.531Z" fill="#145DB8"/>
</svg>
