<svg width="18" height="19" viewBox="0 0 18 19" fill="none" xmlns="http://www.w3.org/2000/svg">
<path d="M7.8335 9.91666H12.0002M5.3335 9.91666H5.34098M9.50016 13.25H5.3335M12.0002 13.25H11.9927" stroke="#145DB8" stroke-width="1.5" stroke-linecap="round" stroke-linejoin="round"/>
<path d="M13.667 0.75V2.41667M3.66699 0.75V2.41667" stroke="#145DB8" stroke-width="1.5" stroke-linecap="round" stroke-linejoin="round"/>
<path d="M0.75 9.28603C0.75 5.65494 0.75 3.8394 1.79343 2.71136C2.83686 1.58333 4.51624 1.58333 7.875 1.58333H9.45833C12.8171 1.58333 14.4965 1.58333 15.5399 2.71136C16.5833 3.8394 16.5833 5.65494 16.5833 9.28603V9.71396C16.5833 13.345 16.5833 15.1606 15.5399 16.2886C14.4965 17.4167 12.8171 17.4167 9.45833 17.4167H7.875C4.51624 17.4167 2.83686 17.4167 1.79343 16.2886C0.75 15.1606 0.75 13.345 0.75 9.71396V9.28603Z" stroke="#145DB8" stroke-width="1.5" stroke-linecap="round" stroke-linejoin="round"/>
<path d="M1.16699 5.75H16.167" stroke="#145DB8" stroke-width="1.5" stroke-linecap="round" stroke-linejoin="round"/>
</svg>
