<svg width="363" height="146" viewBox="0 0 363 146" fill="none" xmlns="http://www.w3.org/2000/svg">
<path d="M17.0238 9.44201L20.5106 9.47508C20.5523 9.47587 20.5932 9.48724 20.6293 9.50811C20.6654 9.52897 20.6957 9.55866 20.7173 9.5944L22.4893 12.5975C22.5165 12.6429 22.5578 12.6782 22.6069 12.6981C22.656 12.718 22.7102 12.7213 22.7614 12.7076C22.8126 12.6939 22.8579 12.6639 22.8905 12.6221C22.9231 12.5804 22.9412 12.5291 22.942 12.4762L22.9751 8.98941C22.9759 8.94768 22.9873 8.90684 23.0081 8.8707C23.029 8.83455 23.0587 8.80429 23.0944 8.78274L26.0975 7.01073C26.1429 6.98349 26.1783 6.9422 26.1981 6.89309C26.218 6.84399 26.2213 6.78975 26.2076 6.73858C26.1939 6.68741 26.1639 6.64211 26.1221 6.60951C26.0804 6.57692 26.0291 6.55882 25.9762 6.55795L22.4894 6.52488C22.4477 6.52409 22.4069 6.51272 22.3707 6.49185C22.3346 6.47099 22.3043 6.4413 22.2828 6.40556L20.5108 3.40249C20.4835 3.35705 20.4422 3.32173 20.3931 3.30186C20.344 3.28199 20.2898 3.27866 20.2386 3.29237C20.1874 3.30608 20.1421 3.33609 20.1095 3.37785C20.077 3.4196 20.0589 3.47084 20.058 3.52381L20.0249 7.01055C20.0241 7.05228 20.0128 7.09312 19.9919 7.12926C19.971 7.16541 19.9413 7.19567 19.9056 7.21722L16.9025 8.98923C16.8571 9.01647 16.8218 9.05776 16.8019 9.10687C16.782 9.15597 16.7787 9.21021 16.7924 9.26138C16.8061 9.31255 16.8361 9.35785 16.8779 9.39045C16.9196 9.42304 16.9709 9.44114 17.0238 9.44201Z" stroke="#145DB8" stroke-width="0.46875" stroke-linecap="round" stroke-linejoin="round"/>
<path d="M49.0238 9.44201L52.5106 9.47508C52.5523 9.47587 52.5932 9.48724 52.6293 9.50811C52.6654 9.52897 52.6957 9.55866 52.7173 9.5944L54.4893 12.5975C54.5165 12.6429 54.5578 12.6782 54.6069 12.6981C54.656 12.718 54.7102 12.7213 54.7614 12.7076C54.8126 12.6939 54.8579 12.6639 54.8905 12.6221C54.9231 12.5804 54.9412 12.5291 54.942 12.4762L54.9751 8.98941C54.9759 8.94768 54.9873 8.90684 55.0081 8.8707C55.029 8.83455 55.0587 8.80429 55.0944 8.78274L58.0975 7.01073C58.1429 6.98349 58.1783 6.9422 58.1981 6.89309C58.218 6.84399 58.2213 6.78975 58.2076 6.73858C58.1939 6.68741 58.1639 6.64211 58.1221 6.60951C58.0804 6.57692 58.0291 6.55882 57.9762 6.55795L54.4894 6.52488C54.4477 6.52409 54.4069 6.51272 54.3707 6.49185C54.3346 6.47099 54.3043 6.4413 54.2828 6.40556L52.5108 3.40249C52.4835 3.35705 52.4422 3.32173 52.3931 3.30186C52.344 3.28199 52.2898 3.27866 52.2386 3.29237C52.1874 3.30608 52.1421 3.33609 52.1095 3.37785C52.077 3.4196 52.0589 3.47084 52.058 3.52381L52.0249 7.01055C52.0241 7.05228 52.0128 7.09312 51.9919 7.12926C51.971 7.16541 51.9413 7.19567 51.9056 7.21722L48.9025 8.98923C48.8571 9.01647 48.8218 9.05776 48.8019 9.10687C48.782 9.15597 48.7787 9.21021 48.7924 9.26138C48.8061 9.31255 48.8361 9.35785 48.8779 9.39045C48.9196 9.42304 48.9709 9.44114 49.0238 9.44201Z" stroke="#145DB8" stroke-width="0.46875" stroke-linecap="round" stroke-linejoin="round"/>
<path d="M81.0238 9.44201L84.5106 9.47508C84.5523 9.47587 84.5932 9.48724 84.6293 9.50811C84.6654 9.52897 84.6957 9.55866 84.7173 9.5944L86.4893 12.5975C86.5165 12.6429 86.5578 12.6782 86.6069 12.6981C86.656 12.718 86.7102 12.7213 86.7614 12.7076C86.8126 12.6939 86.8579 12.6639 86.8905 12.6221C86.9231 12.5804 86.9412 12.5291 86.942 12.4762L86.9751 8.98941C86.9759 8.94768 86.9873 8.90684 87.0081 8.8707C87.029 8.83455 87.0587 8.80429 87.0944 8.78274L90.0975 7.01073C90.1429 6.98349 90.1783 6.9422 90.1981 6.89309C90.218 6.84399 90.2213 6.78975 90.2076 6.73858C90.1939 6.68741 90.1639 6.64211 90.1221 6.60951C90.0804 6.57692 90.0291 6.55882 89.9762 6.55795L86.4894 6.52488C86.4477 6.52409 86.4069 6.51272 86.3707 6.49185C86.3346 6.47099 86.3043 6.4413 86.2828 6.40556L84.5108 3.40249C84.4835 3.35705 84.4422 3.32173 84.3931 3.30186C84.344 3.28199 84.2898 3.27866 84.2386 3.29237C84.1874 3.30608 84.1421 3.33609 84.1095 3.37785C84.077 3.4196 84.0589 3.47084 84.058 3.52381L84.0249 7.01055C84.0241 7.05228 84.0128 7.09312 83.9919 7.12926C83.971 7.16541 83.9413 7.19567 83.9056 7.21722L80.9025 8.98923C80.8571 9.01647 80.8218 9.05776 80.8019 9.10687C80.782 9.15597 80.7787 9.21021 80.7924 9.26138C80.8061 9.31255 80.8361 9.35785 80.8779 9.39045C80.9196 9.42304 80.9709 9.44114 81.0238 9.44201Z" fill="url(#paint0_linear_1114_4155)" stroke="#145DB8" stroke-width="0.125" stroke-linecap="round" stroke-linejoin="round"/>
<path d="M113.024 9.44201L116.511 9.47508C116.552 9.47587 116.593 9.48724 116.629 9.50811C116.665 9.52897 116.696 9.55866 116.717 9.5944L118.489 12.5975C118.517 12.6429 118.558 12.6782 118.607 12.6981C118.656 12.718 118.71 12.7213 118.761 12.7076C118.813 12.6939 118.858 12.6639 118.89 12.6221C118.923 12.5804 118.941 12.5291 118.942 12.4762L118.975 8.98941C118.976 8.94768 118.987 8.90684 119.008 8.8707C119.029 8.83455 119.059 8.80429 119.094 8.78274L122.098 7.01073C122.143 6.98349 122.178 6.9422 122.198 6.89309C122.218 6.84399 122.221 6.78975 122.208 6.73858C122.194 6.68741 122.164 6.64211 122.122 6.60951C122.08 6.57692 122.029 6.55882 121.976 6.55795L118.489 6.52488C118.448 6.52409 118.407 6.51272 118.371 6.49185C118.335 6.47099 118.304 6.4413 118.283 6.40556L116.511 3.40249C116.484 3.35705 116.442 3.32173 116.393 3.30186C116.344 3.28199 116.29 3.27866 116.239 3.29237C116.187 3.30608 116.142 3.33609 116.11 3.37785C116.077 3.4196 116.059 3.47084 116.058 3.52381L116.025 7.01055C116.024 7.05228 116.013 7.09312 115.992 7.12926C115.971 7.16541 115.941 7.19567 115.906 7.21722L112.903 8.98923C112.857 9.01647 112.822 9.05776 112.802 9.10687C112.782 9.15597 112.779 9.21021 112.792 9.26138C112.806 9.31255 112.836 9.35785 112.878 9.39045C112.92 9.42304 112.971 9.44114 113.024 9.44201Z" stroke="#145DB8" stroke-width="0.46875" stroke-linecap="round" stroke-linejoin="round"/>
<path d="M145.024 9.44201L148.511 9.47508C148.552 9.47587 148.593 9.48724 148.629 9.50811C148.665 9.52897 148.696 9.55866 148.717 9.5944L150.489 12.5975C150.517 12.6429 150.558 12.6782 150.607 12.6981C150.656 12.718 150.71 12.7213 150.761 12.7076C150.813 12.6939 150.858 12.6639 150.89 12.6221C150.923 12.5804 150.941 12.5291 150.942 12.4762L150.975 8.98941C150.976 8.94768 150.987 8.90684 151.008 8.8707C151.029 8.83455 151.059 8.80429 151.094 8.78274L154.098 7.01073C154.143 6.98349 154.178 6.9422 154.198 6.89309C154.218 6.84399 154.221 6.78975 154.208 6.73858C154.194 6.68741 154.164 6.64211 154.122 6.60951C154.08 6.57692 154.029 6.55882 153.976 6.55795L150.489 6.52488C150.448 6.52409 150.407 6.51272 150.371 6.49185C150.335 6.47099 150.304 6.4413 150.283 6.40556L148.511 3.40249C148.484 3.35705 148.442 3.32173 148.393 3.30186C148.344 3.28199 148.29 3.27866 148.239 3.29237C148.187 3.30608 148.142 3.33609 148.11 3.37785C148.077 3.4196 148.059 3.47084 148.058 3.52381L148.025 7.01055C148.024 7.05228 148.013 7.09312 147.992 7.12926C147.971 7.16541 147.941 7.19567 147.906 7.21722L144.903 8.98923C144.857 9.01647 144.822 9.05776 144.802 9.10687C144.782 9.15597 144.779 9.21021 144.792 9.26138C144.806 9.31255 144.836 9.35785 144.878 9.39045C144.92 9.42304 144.971 9.44114 145.024 9.44201Z" stroke="#145DB8" stroke-width="0.46875" stroke-linecap="round" stroke-linejoin="round"/>
<path d="M177.024 9.44201L180.511 9.47508C180.552 9.47587 180.593 9.48724 180.629 9.50811C180.665 9.52897 180.696 9.55866 180.717 9.5944L182.489 12.5975C182.517 12.6429 182.558 12.6782 182.607 12.6981C182.656 12.718 182.71 12.7213 182.761 12.7076C182.813 12.6939 182.858 12.6639 182.89 12.6221C182.923 12.5804 182.941 12.5291 182.942 12.4762L182.975 8.98941C182.976 8.94768 182.987 8.90684 183.008 8.8707C183.029 8.83455 183.059 8.80429 183.094 8.78274L186.098 7.01073C186.143 6.98349 186.178 6.9422 186.198 6.89309C186.218 6.84399 186.221 6.78975 186.208 6.73858C186.194 6.68741 186.164 6.64211 186.122 6.60951C186.08 6.57692 186.029 6.55882 185.976 6.55795L182.489 6.52488C182.448 6.52409 182.407 6.51272 182.371 6.49185C182.335 6.47099 182.304 6.4413 182.283 6.40556L180.511 3.40249C180.484 3.35705 180.442 3.32173 180.393 3.30186C180.344 3.28199 180.29 3.27866 180.239 3.29237C180.187 3.30608 180.142 3.33609 180.11 3.37785C180.077 3.4196 180.059 3.47084 180.058 3.52381L180.025 7.01055C180.024 7.05228 180.013 7.09312 179.992 7.12926C179.971 7.16541 179.941 7.19567 179.906 7.21722L176.903 8.98923C176.857 9.01647 176.822 9.05776 176.802 9.10687C176.782 9.15597 176.779 9.21021 176.792 9.26138C176.806 9.31255 176.836 9.35785 176.878 9.39045C176.92 9.42304 176.971 9.44114 177.024 9.44201Z" stroke="#145DB8" stroke-width="0.46875" stroke-linecap="round" stroke-linejoin="round"/>
<path d="M209.024 9.44201L212.511 9.47508C212.552 9.47587 212.593 9.48724 212.629 9.50811C212.665 9.52897 212.696 9.55866 212.717 9.5944L214.489 12.5975C214.517 12.6429 214.558 12.6782 214.607 12.6981C214.656 12.718 214.71 12.7213 214.761 12.7076C214.813 12.6939 214.858 12.6639 214.89 12.6221C214.923 12.5804 214.941 12.5291 214.942 12.4762L214.975 8.98941C214.976 8.94768 214.987 8.90684 215.008 8.8707C215.029 8.83455 215.059 8.80429 215.094 8.78274L218.098 7.01073C218.143 6.98349 218.178 6.9422 218.198 6.89309C218.218 6.84399 218.221 6.78975 218.208 6.73858C218.194 6.68741 218.164 6.64211 218.122 6.60951C218.08 6.57692 218.029 6.55882 217.976 6.55795L214.489 6.52488C214.448 6.52409 214.407 6.51272 214.371 6.49185C214.335 6.47099 214.304 6.4413 214.283 6.40556L212.511 3.40249C212.484 3.35705 212.442 3.32173 212.393 3.30186C212.344 3.28199 212.29 3.27866 212.239 3.29237C212.187 3.30608 212.142 3.33609 212.11 3.37785C212.077 3.4196 212.059 3.47084 212.058 3.52381L212.025 7.01055C212.024 7.05228 212.013 7.09312 211.992 7.12926C211.971 7.16541 211.941 7.19567 211.906 7.21722L208.903 8.98923C208.857 9.01647 208.822 9.05776 208.802 9.10687C208.782 9.15597 208.779 9.21021 208.792 9.26138C208.806 9.31255 208.836 9.35785 208.878 9.39045C208.92 9.42304 208.971 9.44114 209.024 9.44201Z" fill="url(#paint1_linear_1114_4155)" stroke="#145DB8" stroke-width="0.125" stroke-linecap="round" stroke-linejoin="round"/>
<path d="M241.024 9.44201L244.511 9.47508C244.552 9.47587 244.593 9.48724 244.629 9.50811C244.665 9.52897 244.696 9.55866 244.717 9.5944L246.489 12.5975C246.517 12.6429 246.558 12.6782 246.607 12.6981C246.656 12.718 246.71 12.7213 246.761 12.7076C246.813 12.6939 246.858 12.6639 246.89 12.6221C246.923 12.5804 246.941 12.5291 246.942 12.4762L246.975 8.98941C246.976 8.94768 246.987 8.90684 247.008 8.8707C247.029 8.83455 247.059 8.80429 247.094 8.78274L250.098 7.01073C250.143 6.98349 250.178 6.9422 250.198 6.89309C250.218 6.84399 250.221 6.78975 250.208 6.73858C250.194 6.68741 250.164 6.64211 250.122 6.60951C250.08 6.57692 250.029 6.55882 249.976 6.55795L246.489 6.52488C246.448 6.52409 246.407 6.51272 246.371 6.49185C246.335 6.47099 246.304 6.4413 246.283 6.40556L244.511 3.40249C244.484 3.35705 244.442 3.32173 244.393 3.30186C244.344 3.28199 244.29 3.27866 244.239 3.29237C244.187 3.30608 244.142 3.33609 244.11 3.37785C244.077 3.4196 244.059 3.47084 244.058 3.52381L244.025 7.01055C244.024 7.05228 244.013 7.09312 243.992 7.12926C243.971 7.16541 243.941 7.19567 243.906 7.21722L240.903 8.98923C240.857 9.01647 240.822 9.05776 240.802 9.10687C240.782 9.15597 240.779 9.21021 240.792 9.26138C240.806 9.31255 240.836 9.35785 240.878 9.39045C240.92 9.42304 240.971 9.44114 241.024 9.44201Z" stroke="#145DB8" stroke-width="0.46875" stroke-linecap="round" stroke-linejoin="round"/>
<path d="M273.024 9.44201L276.511 9.47508C276.552 9.47587 276.593 9.48724 276.629 9.50811C276.665 9.52897 276.696 9.55866 276.717 9.5944L278.489 12.5975C278.517 12.6429 278.558 12.6782 278.607 12.6981C278.656 12.718 278.71 12.7213 278.761 12.7076C278.813 12.6939 278.858 12.6639 278.89 12.6221C278.923 12.5804 278.941 12.5291 278.942 12.4762L278.975 8.98941C278.976 8.94768 278.987 8.90684 279.008 8.8707C279.029 8.83455 279.059 8.80429 279.094 8.78274L282.098 7.01073C282.143 6.98349 282.178 6.9422 282.198 6.89309C282.218 6.84399 282.221 6.78975 282.208 6.73858C282.194 6.68741 282.164 6.64211 282.122 6.60951C282.08 6.57692 282.029 6.55882 281.976 6.55795L278.489 6.52488C278.448 6.52409 278.407 6.51272 278.371 6.49185C278.335 6.47099 278.304 6.4413 278.283 6.40556L276.511 3.40249C276.484 3.35705 276.442 3.32173 276.393 3.30186C276.344 3.28199 276.29 3.27866 276.239 3.29237C276.187 3.30608 276.142 3.33609 276.11 3.37785C276.077 3.4196 276.059 3.47084 276.058 3.52381L276.025 7.01055C276.024 7.05228 276.013 7.09312 275.992 7.12926C275.971 7.16541 275.941 7.19567 275.906 7.21722L272.903 8.98923C272.857 9.01647 272.822 9.05776 272.802 9.10687C272.782 9.15597 272.779 9.21021 272.792 9.26138C272.806 9.31255 272.836 9.35785 272.878 9.39045C272.92 9.42304 272.971 9.44114 273.024 9.44201Z" stroke="#145DB8" stroke-width="0.46875" stroke-linecap="round" stroke-linejoin="round"/>
<path d="M305.024 9.44201L308.511 9.47508C308.552 9.47587 308.593 9.48724 308.629 9.50811C308.665 9.52897 308.696 9.55866 308.717 9.5944L310.489 12.5975C310.517 12.6429 310.558 12.6782 310.607 12.6981C310.656 12.718 310.71 12.7213 310.761 12.7076C310.813 12.6939 310.858 12.6639 310.89 12.6221C310.923 12.5804 310.941 12.5291 310.942 12.4762L310.975 8.98941C310.976 8.94768 310.987 8.90684 311.008 8.8707C311.029 8.83455 311.059 8.80429 311.094 8.78274L314.098 7.01073C314.143 6.98349 314.178 6.9422 314.198 6.89309C314.218 6.84399 314.221 6.78975 314.208 6.73858C314.194 6.68741 314.164 6.64211 314.122 6.60951C314.08 6.57692 314.029 6.55882 313.976 6.55795L310.489 6.52488C310.448 6.52409 310.407 6.51272 310.371 6.49185C310.335 6.47099 310.304 6.4413 310.283 6.40556L308.511 3.40249C308.484 3.35705 308.442 3.32173 308.393 3.30186C308.344 3.28199 308.29 3.27866 308.239 3.29237C308.187 3.30608 308.142 3.33609 308.11 3.37785C308.077 3.4196 308.059 3.47084 308.058 3.52381L308.025 7.01055C308.024 7.05228 308.013 7.09312 307.992 7.12926C307.971 7.16541 307.941 7.19567 307.906 7.21722L304.903 8.98923C304.857 9.01647 304.822 9.05776 304.802 9.10687C304.782 9.15597 304.779 9.21021 304.792 9.26138C304.806 9.31255 304.836 9.35785 304.878 9.39045C304.92 9.42304 304.971 9.44114 305.024 9.44201Z" stroke="#145DB8" stroke-width="0.46875" stroke-linecap="round" stroke-linejoin="round"/>
<path d="M337.024 9.44201L340.511 9.47508C340.552 9.47587 340.593 9.48724 340.629 9.50811C340.665 9.52897 340.696 9.55866 340.717 9.5944L342.489 12.5975C342.517 12.6429 342.558 12.6782 342.607 12.6981C342.656 12.718 342.71 12.7213 342.761 12.7076C342.813 12.6939 342.858 12.6639 342.89 12.6221C342.923 12.5804 342.941 12.5291 342.942 12.4762L342.975 8.98941C342.976 8.94768 342.987 8.90684 343.008 8.8707C343.029 8.83455 343.059 8.80429 343.094 8.78274L346.098 7.01073C346.143 6.98349 346.178 6.9422 346.198 6.89309C346.218 6.84399 346.221 6.78975 346.208 6.73858C346.194 6.68741 346.164 6.64211 346.122 6.60951C346.08 6.57692 346.029 6.55882 345.976 6.55795L342.489 6.52488C342.448 6.52409 342.407 6.51272 342.371 6.49185C342.335 6.47099 342.304 6.4413 342.283 6.40556L340.511 3.40249C340.484 3.35705 340.442 3.32173 340.393 3.30186C340.344 3.28199 340.29 3.27866 340.239 3.29237C340.187 3.30608 340.142 3.33609 340.11 3.37785C340.077 3.4196 340.059 3.47084 340.058 3.52381L340.025 7.01055C340.024 7.05228 340.013 7.09312 339.992 7.12926C339.971 7.16541 339.941 7.19567 339.906 7.21722L336.903 8.98923C336.857 9.01647 336.822 9.05776 336.802 9.10687C336.782 9.15597 336.779 9.21021 336.792 9.26138C336.806 9.31255 336.836 9.35785 336.878 9.39045C336.92 9.42304 336.971 9.44114 337.024 9.44201Z" fill="url(#paint2_linear_1114_4155)" stroke="#145DB8" stroke-width="0.125" stroke-linecap="round" stroke-linejoin="round"/>
<path d="M17.0238 36.442L20.5106 36.4751C20.5523 36.4759 20.5932 36.4872 20.6293 36.5081C20.6654 36.529 20.6957 36.5587 20.7173 36.5944L22.4893 39.5975C22.5165 39.6429 22.5578 39.6782 22.6069 39.6981C22.656 39.718 22.7102 39.7213 22.7614 39.7076C22.8126 39.6939 22.8579 39.6639 22.8905 39.6221C22.9231 39.5804 22.9412 39.5291 22.942 39.4762L22.9751 35.9894C22.9759 35.9477 22.9873 35.9068 23.0081 35.8707C23.029 35.8346 23.0587 35.8043 23.0944 35.7827L26.0975 34.0107C26.1429 33.9835 26.1783 33.9422 26.1981 33.8931C26.218 33.844 26.2213 33.7897 26.2076 33.7386C26.1939 33.6874 26.1639 33.6421 26.1221 33.6095C26.0804 33.5769 26.0291 33.5588 25.9762 33.558L22.4894 33.5249C22.4477 33.5241 22.4069 33.5127 22.3707 33.4919C22.3346 33.471 22.3043 33.4413 22.2828 33.4056L20.5108 30.4025C20.4835 30.3571 20.4422 30.3217 20.3931 30.3019C20.344 30.282 20.2898 30.2787 20.2386 30.2924C20.1874 30.3061 20.1421 30.3361 20.1095 30.3778C20.077 30.4196 20.0589 30.4708 20.058 30.5238L20.0249 34.0105C20.0241 34.0523 20.0128 34.0931 19.9919 34.1293C19.971 34.1654 19.9413 34.1957 19.9056 34.2172L16.9025 35.9892C16.8571 36.0165 16.8218 36.0578 16.8019 36.1069C16.782 36.156 16.7787 36.2102 16.7924 36.2614C16.8061 36.3125 16.8361 36.3579 16.8779 36.3904C16.9196 36.423 16.9709 36.4411 17.0238 36.442Z" stroke="#145DB8" stroke-width="0.46875" stroke-linecap="round" stroke-linejoin="round"/>
<path d="M49.0238 36.442L52.5106 36.4751C52.5523 36.4759 52.5932 36.4872 52.6293 36.5081C52.6654 36.529 52.6957 36.5587 52.7173 36.5944L54.4893 39.5975C54.5165 39.6429 54.5578 39.6782 54.6069 39.6981C54.656 39.718 54.7102 39.7213 54.7614 39.7076C54.8126 39.6939 54.8579 39.6639 54.8905 39.6221C54.9231 39.5804 54.9412 39.5291 54.942 39.4762L54.9751 35.9894C54.9759 35.9477 54.9873 35.9068 55.0081 35.8707C55.029 35.8346 55.0587 35.8043 55.0944 35.7827L58.0975 34.0107C58.1429 33.9835 58.1783 33.9422 58.1981 33.8931C58.218 33.844 58.2213 33.7897 58.2076 33.7386C58.1939 33.6874 58.1639 33.6421 58.1221 33.6095C58.0804 33.5769 58.0291 33.5588 57.9762 33.558L54.4894 33.5249C54.4477 33.5241 54.4069 33.5127 54.3707 33.4919C54.3346 33.471 54.3043 33.4413 54.2828 33.4056L52.5108 30.4025C52.4835 30.3571 52.4422 30.3217 52.3931 30.3019C52.344 30.282 52.2898 30.2787 52.2386 30.2924C52.1874 30.3061 52.1421 30.3361 52.1095 30.3778C52.077 30.4196 52.0589 30.4708 52.058 30.5238L52.0249 34.0105C52.0241 34.0523 52.0128 34.0931 51.9919 34.1293C51.971 34.1654 51.9413 34.1957 51.9056 34.2172L48.9025 35.9892C48.8571 36.0165 48.8218 36.0578 48.8019 36.1069C48.782 36.156 48.7787 36.2102 48.7924 36.2614C48.8061 36.3125 48.8361 36.3579 48.8779 36.3904C48.9196 36.423 48.9709 36.4411 49.0238 36.442Z" stroke="#145DB8" stroke-width="0.46875" stroke-linecap="round" stroke-linejoin="round"/>
<path d="M81.0238 36.442L84.5106 36.4751C84.5523 36.4759 84.5932 36.4872 84.6293 36.5081C84.6654 36.529 84.6957 36.5587 84.7173 36.5944L86.4893 39.5975C86.5165 39.6429 86.5578 39.6782 86.6069 39.6981C86.656 39.718 86.7102 39.7213 86.7614 39.7076C86.8126 39.6939 86.8579 39.6639 86.8905 39.6221C86.9231 39.5804 86.9412 39.5291 86.942 39.4762L86.9751 35.9894C86.9759 35.9477 86.9873 35.9068 87.0081 35.8707C87.029 35.8346 87.0587 35.8043 87.0944 35.7827L90.0975 34.0107C90.1429 33.9835 90.1783 33.9422 90.1981 33.8931C90.218 33.844 90.2213 33.7897 90.2076 33.7386C90.1939 33.6874 90.1639 33.6421 90.1221 33.6095C90.0804 33.5769 90.0291 33.5588 89.9762 33.558L86.4894 33.5249C86.4477 33.5241 86.4069 33.5127 86.3707 33.4919C86.3346 33.471 86.3043 33.4413 86.2828 33.4056L84.5108 30.4025C84.4835 30.3571 84.4422 30.3217 84.3931 30.3019C84.344 30.282 84.2898 30.2787 84.2386 30.2924C84.1874 30.3061 84.1421 30.3361 84.1095 30.3778C84.077 30.4196 84.0589 30.4708 84.058 30.5238L84.0249 34.0105C84.0241 34.0523 84.0128 34.0931 83.9919 34.1293C83.971 34.1654 83.9413 34.1957 83.9056 34.2172L80.9025 35.9892C80.8571 36.0165 80.8218 36.0578 80.8019 36.1069C80.782 36.156 80.7787 36.2102 80.7924 36.2614C80.8061 36.3125 80.8361 36.3579 80.8779 36.3904C80.9196 36.423 80.9709 36.4411 81.0238 36.442Z" fill="url(#paint3_linear_1114_4155)" stroke="#145DB8" stroke-width="0.125" stroke-linecap="round" stroke-linejoin="round"/>
<path d="M113.024 36.442L116.511 36.4751C116.552 36.4759 116.593 36.4872 116.629 36.5081C116.665 36.529 116.696 36.5587 116.717 36.5944L118.489 39.5975C118.517 39.6429 118.558 39.6782 118.607 39.6981C118.656 39.718 118.71 39.7213 118.761 39.7076C118.813 39.6939 118.858 39.6639 118.89 39.6221C118.923 39.5804 118.941 39.5291 118.942 39.4762L118.975 35.9894C118.976 35.9477 118.987 35.9068 119.008 35.8707C119.029 35.8346 119.059 35.8043 119.094 35.7827L122.098 34.0107C122.143 33.9835 122.178 33.9422 122.198 33.8931C122.218 33.844 122.221 33.7897 122.208 33.7386C122.194 33.6874 122.164 33.6421 122.122 33.6095C122.08 33.5769 122.029 33.5588 121.976 33.558L118.489 33.5249C118.448 33.5241 118.407 33.5127 118.371 33.4919C118.335 33.471 118.304 33.4413 118.283 33.4056L116.511 30.4025C116.484 30.3571 116.442 30.3217 116.393 30.3019C116.344 30.282 116.29 30.2787 116.239 30.2924C116.187 30.3061 116.142 30.3361 116.11 30.3778C116.077 30.4196 116.059 30.4708 116.058 30.5238L116.025 34.0105C116.024 34.0523 116.013 34.0931 115.992 34.1293C115.971 34.1654 115.941 34.1957 115.906 34.2172L112.903 35.9892C112.857 36.0165 112.822 36.0578 112.802 36.1069C112.782 36.156 112.779 36.2102 112.792 36.2614C112.806 36.3125 112.836 36.3579 112.878 36.3904C112.92 36.423 112.971 36.4411 113.024 36.442Z" stroke="#145DB8" stroke-width="0.46875" stroke-linecap="round" stroke-linejoin="round"/>
<path d="M145.024 36.442L148.511 36.4751C148.552 36.4759 148.593 36.4872 148.629 36.5081C148.665 36.529 148.696 36.5587 148.717 36.5944L150.489 39.5975C150.517 39.6429 150.558 39.6782 150.607 39.6981C150.656 39.718 150.71 39.7213 150.761 39.7076C150.813 39.6939 150.858 39.6639 150.89 39.6221C150.923 39.5804 150.941 39.5291 150.942 39.4762L150.975 35.9894C150.976 35.9477 150.987 35.9068 151.008 35.8707C151.029 35.8346 151.059 35.8043 151.094 35.7827L154.098 34.0107C154.143 33.9835 154.178 33.9422 154.198 33.8931C154.218 33.844 154.221 33.7897 154.208 33.7386C154.194 33.6874 154.164 33.6421 154.122 33.6095C154.08 33.5769 154.029 33.5588 153.976 33.558L150.489 33.5249C150.448 33.5241 150.407 33.5127 150.371 33.4919C150.335 33.471 150.304 33.4413 150.283 33.4056L148.511 30.4025C148.484 30.3571 148.442 30.3217 148.393 30.3019C148.344 30.282 148.29 30.2787 148.239 30.2924C148.187 30.3061 148.142 30.3361 148.11 30.3778C148.077 30.4196 148.059 30.4708 148.058 30.5238L148.025 34.0105C148.024 34.0523 148.013 34.0931 147.992 34.1293C147.971 34.1654 147.941 34.1957 147.906 34.2172L144.903 35.9892C144.857 36.0165 144.822 36.0578 144.802 36.1069C144.782 36.156 144.779 36.2102 144.792 36.2614C144.806 36.3125 144.836 36.3579 144.878 36.3904C144.92 36.423 144.971 36.4411 145.024 36.442Z" stroke="#145DB8" stroke-width="0.46875" stroke-linecap="round" stroke-linejoin="round"/>
<path d="M177.024 36.442L180.511 36.4751C180.552 36.4759 180.593 36.4872 180.629 36.5081C180.665 36.529 180.696 36.5587 180.717 36.5944L182.489 39.5975C182.517 39.6429 182.558 39.6782 182.607 39.6981C182.656 39.718 182.71 39.7213 182.761 39.7076C182.813 39.6939 182.858 39.6639 182.89 39.6221C182.923 39.5804 182.941 39.5291 182.942 39.4762L182.975 35.9894C182.976 35.9477 182.987 35.9068 183.008 35.8707C183.029 35.8346 183.059 35.8043 183.094 35.7827L186.098 34.0107C186.143 33.9835 186.178 33.9422 186.198 33.8931C186.218 33.844 186.221 33.7897 186.208 33.7386C186.194 33.6874 186.164 33.6421 186.122 33.6095C186.08 33.5769 186.029 33.5588 185.976 33.558L182.489 33.5249C182.448 33.5241 182.407 33.5127 182.371 33.4919C182.335 33.471 182.304 33.4413 182.283 33.4056L180.511 30.4025C180.484 30.3571 180.442 30.3217 180.393 30.3019C180.344 30.282 180.29 30.2787 180.239 30.2924C180.187 30.3061 180.142 30.3361 180.11 30.3778C180.077 30.4196 180.059 30.4708 180.058 30.5238L180.025 34.0105C180.024 34.0523 180.013 34.0931 179.992 34.1293C179.971 34.1654 179.941 34.1957 179.906 34.2172L176.903 35.9892C176.857 36.0165 176.822 36.0578 176.802 36.1069C176.782 36.156 176.779 36.2102 176.792 36.2614C176.806 36.3125 176.836 36.3579 176.878 36.3904C176.92 36.423 176.971 36.4411 177.024 36.442Z" stroke="#145DB8" stroke-width="0.46875" stroke-linecap="round" stroke-linejoin="round"/>
<path d="M209.024 36.442L212.511 36.4751C212.552 36.4759 212.593 36.4872 212.629 36.5081C212.665 36.529 212.696 36.5587 212.717 36.5944L214.489 39.5975C214.517 39.6429 214.558 39.6782 214.607 39.6981C214.656 39.718 214.71 39.7213 214.761 39.7076C214.813 39.6939 214.858 39.6639 214.89 39.6221C214.923 39.5804 214.941 39.5291 214.942 39.4762L214.975 35.9894C214.976 35.9477 214.987 35.9068 215.008 35.8707C215.029 35.8346 215.059 35.8043 215.094 35.7827L218.098 34.0107C218.143 33.9835 218.178 33.9422 218.198 33.8931C218.218 33.844 218.221 33.7897 218.208 33.7386C218.194 33.6874 218.164 33.6421 218.122 33.6095C218.08 33.5769 218.029 33.5588 217.976 33.558L214.489 33.5249C214.448 33.5241 214.407 33.5127 214.371 33.4919C214.335 33.471 214.304 33.4413 214.283 33.4056L212.511 30.4025C212.484 30.3571 212.442 30.3217 212.393 30.3019C212.344 30.282 212.29 30.2787 212.239 30.2924C212.187 30.3061 212.142 30.3361 212.11 30.3778C212.077 30.4196 212.059 30.4708 212.058 30.5238L212.025 34.0105C212.024 34.0523 212.013 34.0931 211.992 34.1293C211.971 34.1654 211.941 34.1957 211.906 34.2172L208.903 35.9892C208.857 36.0165 208.822 36.0578 208.802 36.1069C208.782 36.156 208.779 36.2102 208.792 36.2614C208.806 36.3125 208.836 36.3579 208.878 36.3904C208.92 36.423 208.971 36.4411 209.024 36.442Z" fill="url(#paint4_linear_1114_4155)" stroke="#145DB8" stroke-width="0.125" stroke-linecap="round" stroke-linejoin="round"/>
<path d="M241.024 36.442L244.511 36.4751C244.552 36.4759 244.593 36.4872 244.629 36.5081C244.665 36.529 244.696 36.5587 244.717 36.5944L246.489 39.5975C246.517 39.6429 246.558 39.6782 246.607 39.6981C246.656 39.718 246.71 39.7213 246.761 39.7076C246.813 39.6939 246.858 39.6639 246.89 39.6221C246.923 39.5804 246.941 39.5291 246.942 39.4762L246.975 35.9894C246.976 35.9477 246.987 35.9068 247.008 35.8707C247.029 35.8346 247.059 35.8043 247.094 35.7827L250.098 34.0107C250.143 33.9835 250.178 33.9422 250.198 33.8931C250.218 33.844 250.221 33.7897 250.208 33.7386C250.194 33.6874 250.164 33.6421 250.122 33.6095C250.08 33.5769 250.029 33.5588 249.976 33.558L246.489 33.5249C246.448 33.5241 246.407 33.5127 246.371 33.4919C246.335 33.471 246.304 33.4413 246.283 33.4056L244.511 30.4025C244.484 30.3571 244.442 30.3217 244.393 30.3019C244.344 30.282 244.29 30.2787 244.239 30.2924C244.187 30.3061 244.142 30.3361 244.11 30.3778C244.077 30.4196 244.059 30.4708 244.058 30.5238L244.025 34.0105C244.024 34.0523 244.013 34.0931 243.992 34.1293C243.971 34.1654 243.941 34.1957 243.906 34.2172L240.903 35.9892C240.857 36.0165 240.822 36.0578 240.802 36.1069C240.782 36.156 240.779 36.2102 240.792 36.2614C240.806 36.3125 240.836 36.3579 240.878 36.3904C240.92 36.423 240.971 36.4411 241.024 36.442Z" stroke="#145DB8" stroke-width="0.46875" stroke-linecap="round" stroke-linejoin="round"/>
<path d="M273.024 36.442L276.511 36.4751C276.552 36.4759 276.593 36.4872 276.629 36.5081C276.665 36.529 276.696 36.5587 276.717 36.5944L278.489 39.5975C278.517 39.6429 278.558 39.6782 278.607 39.6981C278.656 39.718 278.71 39.7213 278.761 39.7076C278.813 39.6939 278.858 39.6639 278.89 39.6221C278.923 39.5804 278.941 39.5291 278.942 39.4762L278.975 35.9894C278.976 35.9477 278.987 35.9068 279.008 35.8707C279.029 35.8346 279.059 35.8043 279.094 35.7827L282.098 34.0107C282.143 33.9835 282.178 33.9422 282.198 33.8931C282.218 33.844 282.221 33.7897 282.208 33.7386C282.194 33.6874 282.164 33.6421 282.122 33.6095C282.08 33.5769 282.029 33.5588 281.976 33.558L278.489 33.5249C278.448 33.5241 278.407 33.5127 278.371 33.4919C278.335 33.471 278.304 33.4413 278.283 33.4056L276.511 30.4025C276.484 30.3571 276.442 30.3217 276.393 30.3019C276.344 30.282 276.29 30.2787 276.239 30.2924C276.187 30.3061 276.142 30.3361 276.11 30.3778C276.077 30.4196 276.059 30.4708 276.058 30.5238L276.025 34.0105C276.024 34.0523 276.013 34.0931 275.992 34.1293C275.971 34.1654 275.941 34.1957 275.906 34.2172L272.903 35.9892C272.857 36.0165 272.822 36.0578 272.802 36.1069C272.782 36.156 272.779 36.2102 272.792 36.2614C272.806 36.3125 272.836 36.3579 272.878 36.3904C272.92 36.423 272.971 36.4411 273.024 36.442Z" stroke="#145DB8" stroke-width="0.46875" stroke-linecap="round" stroke-linejoin="round"/>
<path d="M305.024 36.442L308.511 36.4751C308.552 36.4759 308.593 36.4872 308.629 36.5081C308.665 36.529 308.696 36.5587 308.717 36.5944L310.489 39.5975C310.517 39.6429 310.558 39.6782 310.607 39.6981C310.656 39.718 310.71 39.7213 310.761 39.7076C310.813 39.6939 310.858 39.6639 310.89 39.6221C310.923 39.5804 310.941 39.5291 310.942 39.4762L310.975 35.9894C310.976 35.9477 310.987 35.9068 311.008 35.8707C311.029 35.8346 311.059 35.8043 311.094 35.7827L314.098 34.0107C314.143 33.9835 314.178 33.9422 314.198 33.8931C314.218 33.844 314.221 33.7897 314.208 33.7386C314.194 33.6874 314.164 33.6421 314.122 33.6095C314.08 33.5769 314.029 33.5588 313.976 33.558L310.489 33.5249C310.448 33.5241 310.407 33.5127 310.371 33.4919C310.335 33.471 310.304 33.4413 310.283 33.4056L308.511 30.4025C308.484 30.3571 308.442 30.3217 308.393 30.3019C308.344 30.282 308.29 30.2787 308.239 30.2924C308.187 30.3061 308.142 30.3361 308.11 30.3778C308.077 30.4196 308.059 30.4708 308.058 30.5238L308.025 34.0105C308.024 34.0523 308.013 34.0931 307.992 34.1293C307.971 34.1654 307.941 34.1957 307.906 34.2172L304.903 35.9892C304.857 36.0165 304.822 36.0578 304.802 36.1069C304.782 36.156 304.779 36.2102 304.792 36.2614C304.806 36.3125 304.836 36.3579 304.878 36.3904C304.92 36.423 304.971 36.4411 305.024 36.442Z" stroke="#145DB8" stroke-width="0.46875" stroke-linecap="round" stroke-linejoin="round"/>
<path d="M337.024 36.442L340.511 36.4751C340.552 36.4759 340.593 36.4872 340.629 36.5081C340.665 36.529 340.696 36.5587 340.717 36.5944L342.489 39.5975C342.517 39.6429 342.558 39.6782 342.607 39.6981C342.656 39.718 342.71 39.7213 342.761 39.7076C342.813 39.6939 342.858 39.6639 342.89 39.6221C342.923 39.5804 342.941 39.5291 342.942 39.4762L342.975 35.9894C342.976 35.9477 342.987 35.9068 343.008 35.8707C343.029 35.8346 343.059 35.8043 343.094 35.7827L346.098 34.0107C346.143 33.9835 346.178 33.9422 346.198 33.8931C346.218 33.844 346.221 33.7897 346.208 33.7386C346.194 33.6874 346.164 33.6421 346.122 33.6095C346.08 33.5769 346.029 33.5588 345.976 33.558L342.489 33.5249C342.448 33.5241 342.407 33.5127 342.371 33.4919C342.335 33.471 342.304 33.4413 342.283 33.4056L340.511 30.4025C340.484 30.3571 340.442 30.3217 340.393 30.3019C340.344 30.282 340.29 30.2787 340.239 30.2924C340.187 30.3061 340.142 30.3361 340.11 30.3778C340.077 30.4196 340.059 30.4708 340.058 30.5238L340.025 34.0105C340.024 34.0523 340.013 34.0931 339.992 34.1293C339.971 34.1654 339.941 34.1957 339.906 34.2172L336.903 35.9892C336.857 36.0165 336.822 36.0578 336.802 36.1069C336.782 36.156 336.779 36.2102 336.792 36.2614C336.806 36.3125 336.836 36.3579 336.878 36.3904C336.92 36.423 336.971 36.4411 337.024 36.442Z" fill="url(#paint5_linear_1114_4155)" stroke="#145DB8" stroke-width="0.125" stroke-linecap="round" stroke-linejoin="round"/>
<g filter="url(#filter0_d_1114_4155)">
<g clip-path="url(#clip0_1114_4155)">
<rect x="12" y="51" width="339" height="44" rx="12" fill="white"/>
<path d="M62.8011 70.3636C62.7415 69.8598 62.4995 69.4688 62.0753 69.1903C61.651 68.9119 61.1307 68.7727 60.5142 68.7727C60.0634 68.7727 59.669 68.8456 59.331 68.9915C58.9962 69.1373 58.7344 69.3378 58.5455 69.593C58.3598 69.8482 58.267 70.1383 58.267 70.4631C58.267 70.7348 58.3317 70.9685 58.4609 71.1641C58.5935 71.3563 58.7625 71.517 58.968 71.6463C59.1735 71.7723 59.389 71.8767 59.6143 71.9595C59.8397 72.0391 60.0469 72.1037 60.2358 72.1534L61.2699 72.4318C61.535 72.5014 61.83 72.5975 62.1548 72.7202C62.483 72.8428 62.7962 73.0102 63.0945 73.2223C63.3961 73.4311 63.6446 73.6996 63.8402 74.0277C64.0357 74.3558 64.1335 74.7585 64.1335 75.2358C64.1335 75.786 63.9893 76.2831 63.701 76.7273C63.416 77.1714 62.9983 77.5244 62.4482 77.7862C61.9013 78.0481 61.2367 78.179 60.4545 78.179C59.7254 78.179 59.094 78.0613 58.5604 77.826C58.0301 77.5907 57.6125 77.2625 57.3075 76.8416C57.0059 76.4207 56.8352 75.9318 56.7955 75.375H58.0682C58.1013 75.7595 58.2306 76.0777 58.456 76.3295C58.6847 76.5781 58.973 76.7637 59.321 76.8864C59.6723 77.0057 60.0502 77.0653 60.4545 77.0653C60.9252 77.0653 61.3478 76.9891 61.7223 76.8366C62.0968 76.6809 62.3935 76.4654 62.6122 76.1903C62.831 75.9119 62.9403 75.5871 62.9403 75.2159C62.9403 74.8778 62.8459 74.6027 62.657 74.3906C62.468 74.1785 62.2195 74.0062 61.9112 73.8736C61.603 73.741 61.2699 73.625 60.9119 73.5256L59.6591 73.1676C58.8636 72.9389 58.2339 72.6125 57.7699 72.1882C57.3059 71.764 57.0739 71.2088 57.0739 70.5227C57.0739 69.9527 57.228 69.4555 57.5362 69.0312C57.8478 68.6037 58.2654 68.2723 58.7891 68.0369C59.3161 67.7983 59.9044 67.679 60.554 67.679C61.2102 67.679 61.7936 67.7966 62.304 68.032C62.8144 68.264 63.2188 68.5821 63.517 68.9865C63.8187 69.3909 63.9777 69.8499 63.9943 70.3636H62.8011ZM69.2033 78.1591C68.4675 78.1591 67.8328 77.9967 67.2992 77.6719C66.7689 77.3438 66.3596 76.8864 66.0712 76.2997C65.7862 75.7098 65.6436 75.0237 65.6436 74.2415C65.6436 73.4593 65.7862 72.7699 66.0712 72.1733C66.3596 71.5734 66.7606 71.1061 67.2743 70.7713C67.7914 70.4332 68.3946 70.2642 69.084 70.2642C69.4817 70.2642 69.8745 70.3305 70.2623 70.4631C70.65 70.5956 71.003 70.8111 71.3212 71.1094C71.6394 71.4044 71.8929 71.7955 72.0819 72.2827C72.2708 72.7699 72.3652 73.3698 72.3652 74.0824V74.5795H66.4789V73.5653H71.1721C71.1721 73.1345 71.0859 72.75 70.9135 72.4119C70.7445 72.0739 70.5025 71.8071 70.1877 71.6115C69.8761 71.416 69.5082 71.3182 69.084 71.3182C68.6167 71.3182 68.2123 71.4342 67.8709 71.6662C67.5328 71.8949 67.2727 72.1932 67.0904 72.5611C66.9081 72.929 66.8169 73.3234 66.8169 73.7443V74.4205C66.8169 74.9972 66.9164 75.486 67.1152 75.8871C67.3174 76.2848 67.5975 76.5881 67.9554 76.7969C68.3134 77.0024 68.7293 77.1051 69.2033 77.1051C69.5115 77.1051 69.79 77.062 70.0385 76.9759C70.2904 76.8864 70.5075 76.7538 70.6898 76.5781C70.8721 76.3991 71.013 76.1771 71.1124 75.9119L72.2459 76.2301C72.1266 76.6146 71.9261 76.9527 71.6444 77.2443C71.3626 77.5327 71.0146 77.758 70.6003 77.9205C70.186 78.0795 69.7203 78.1591 69.2033 78.1591ZM76.3972 78.179C75.9133 78.179 75.4741 78.0878 75.0797 77.9055C74.6853 77.7199 74.3721 77.4531 74.1401 77.1051C73.9081 76.7538 73.7921 76.3295 73.7921 75.8324C73.7921 75.3949 73.8783 75.0402 74.0506 74.7685C74.223 74.4934 74.4533 74.2779 74.7417 74.1222C75.03 73.9664 75.3482 73.8504 75.6962 73.7741C76.0475 73.6946 76.4005 73.6316 76.7551 73.5852C77.2192 73.5256 77.5953 73.4808 77.8837 73.451C78.1754 73.4179 78.3875 73.3632 78.5201 73.2869C78.656 73.2107 78.7239 73.0781 78.7239 72.8892V72.8494C78.7239 72.3589 78.5897 71.9777 78.3212 71.706C78.056 71.4342 77.6534 71.2983 77.1131 71.2983C76.553 71.2983 76.1138 71.4209 75.7956 71.6662C75.4775 71.9115 75.2537 72.1733 75.1245 72.4517L74.0108 72.054C74.2097 71.59 74.4748 71.2287 74.8063 70.9702C75.141 70.7083 75.5056 70.526 75.9 70.4233C76.2978 70.3172 76.6889 70.2642 77.0733 70.2642C77.3186 70.2642 77.6003 70.294 77.9185 70.3537C78.24 70.41 78.5499 70.5277 78.8482 70.7067C79.1498 70.8857 79.4 71.1558 79.5989 71.517C79.7978 71.8783 79.8972 72.3622 79.8972 72.9688V78H78.7239V76.9659H78.6642C78.5847 77.1316 78.4521 77.3089 78.2665 77.4979C78.0809 77.6868 77.834 77.8475 77.5257 77.9801C77.2175 78.1127 76.8413 78.179 76.3972 78.179ZM76.5762 77.125C77.0402 77.125 77.4313 77.0339 77.7495 76.8516C78.071 76.6693 78.3129 76.4339 78.4753 76.1456C78.641 75.8572 78.7239 75.554 78.7239 75.2358V74.1619C78.6742 74.2216 78.5648 74.2763 78.3958 74.326C78.2301 74.3724 78.0378 74.4138 77.8191 74.4503C77.6036 74.4834 77.3932 74.5133 77.1877 74.5398C76.9855 74.563 76.8214 74.5829 76.6955 74.5994C76.3906 74.6392 76.1055 74.7038 75.8404 74.7933C75.5785 74.8795 75.3664 75.0104 75.204 75.1861C75.0449 75.3584 74.9654 75.5937 74.9654 75.892C74.9654 76.2997 75.1162 76.608 75.4178 76.8168C75.7227 77.0223 76.1088 77.125 76.5762 77.125ZM82.0387 78V70.3636H83.1722V71.517H83.2518C83.391 71.1392 83.6429 70.8326 84.0075 70.5973C84.372 70.362 84.783 70.2443 85.2404 70.2443C85.3266 70.2443 85.4343 70.246 85.5636 70.2493C85.6928 70.2526 85.7906 70.2576 85.8569 70.2642V71.4574C85.8171 71.4474 85.726 71.4325 85.5835 71.4126C85.4442 71.3894 85.2968 71.3778 85.141 71.3778C84.7698 71.3778 84.4383 71.4557 84.1467 71.6115C83.8583 71.764 83.6296 71.9761 83.4606 72.2479C83.2949 72.5163 83.212 72.8229 83.212 73.1676V78H82.0387ZM90.1175 78.1591C89.4016 78.1591 88.7852 77.9901 88.2681 77.652C87.7511 77.3139 87.3533 76.8482 87.0749 76.255C86.7965 75.6617 86.6573 74.9839 86.6573 74.2216C86.6573 73.446 86.7998 72.7616 87.0849 72.1683C87.3732 71.5717 87.7743 71.1061 88.288 70.7713C88.805 70.4332 89.4083 70.2642 90.0977 70.2642C90.6346 70.2642 91.1185 70.3636 91.5494 70.5625C91.9802 70.7614 92.3332 71.0398 92.6083 71.3977C92.8834 71.7557 93.0541 72.1733 93.1204 72.6506H91.9471C91.8576 72.3026 91.6587 71.9943 91.3505 71.7259C91.0456 71.4541 90.6346 71.3182 90.1175 71.3182C89.6602 71.3182 89.2591 71.4375 88.9144 71.6761C88.573 71.9115 88.3062 72.2446 88.114 72.6754C87.9251 73.103 87.8306 73.6051 87.8306 74.1818C87.8306 74.7718 87.9234 75.2855 88.109 75.723C88.2979 76.1605 88.5631 76.5002 88.9045 76.7422C89.2492 76.9841 89.6535 77.1051 90.1175 77.1051C90.4225 77.1051 90.6992 77.0521 90.9478 76.946C91.1964 76.84 91.4068 76.6875 91.5792 76.4886C91.7515 76.2898 91.8742 76.0511 91.9471 75.7727H93.1204C93.0541 76.2235 92.89 76.6295 92.6282 76.9908C92.3697 77.3487 92.0266 77.6338 91.5991 77.8459C91.1748 78.0547 90.681 78.1591 90.1175 78.1591ZM96.0089 73.4062V78H94.8356V67.8182H96.0089V71.5568H96.1083C96.2873 71.1624 96.5558 70.8492 96.9137 70.6172C97.275 70.3819 97.7556 70.2642 98.3555 70.2642C98.8758 70.2642 99.3316 70.3686 99.7227 70.5774C100.114 70.7829 100.417 71.0994 100.632 71.527C100.851 71.9512 100.961 72.4915 100.961 73.1477V78H99.7873V73.2273C99.7873 72.6207 99.6299 72.1518 99.315 71.8203C99.0034 71.4856 98.5709 71.3182 98.0174 71.3182C97.6329 71.3182 97.2882 71.3994 96.9833 71.5618C96.6817 71.7242 96.4431 71.9612 96.2674 72.2727C96.0951 72.5843 96.0089 72.9621 96.0089 73.4062ZM107.204 78V67.8182H108.377V71.5767H108.476C108.563 71.4441 108.682 71.2751 108.834 71.0696C108.99 70.8608 109.212 70.6752 109.501 70.5128C109.792 70.3471 110.187 70.2642 110.684 70.2642C111.327 70.2642 111.894 70.425 112.384 70.7464C112.875 71.0679 113.257 71.5237 113.532 72.1136C113.808 72.7036 113.945 73.3996 113.945 74.2017C113.945 75.0104 113.808 75.7114 113.532 76.3047C113.257 76.8946 112.876 77.352 112.389 77.6768C111.902 77.9983 111.34 78.1591 110.704 78.1591C110.213 78.1591 109.82 78.0779 109.525 77.9155C109.23 77.7498 109.003 77.5625 108.844 77.3537C108.685 77.1416 108.563 76.9659 108.476 76.8267H108.337V78H107.204ZM108.357 74.1818C108.357 74.7585 108.442 75.2673 108.611 75.7081C108.78 76.1456 109.027 76.4886 109.351 76.7372C109.676 76.9825 110.074 77.1051 110.545 77.1051C111.035 77.1051 111.444 76.9759 111.773 76.7173C112.104 76.4555 112.353 76.1042 112.518 75.6634C112.687 75.2192 112.772 74.7254 112.772 74.1818C112.772 73.6449 112.689 73.161 112.523 72.7301C112.361 72.2959 112.114 71.9529 111.782 71.701C111.454 71.4458 111.042 71.3182 110.545 71.3182C110.067 71.3182 109.666 71.4392 109.341 71.6811C109.017 71.9197 108.771 72.2545 108.606 72.6854C108.44 73.1129 108.357 73.6117 108.357 74.1818ZM116.222 80.8636C116.023 80.8636 115.846 80.8471 115.69 80.8139C115.534 80.7841 115.427 80.7543 115.367 80.7244L115.665 79.6903C115.95 79.7633 116.202 79.7898 116.421 79.7699C116.64 79.75 116.834 79.6522 117.003 79.4766C117.175 79.3042 117.332 79.0241 117.475 78.6364L117.694 78.0398L114.87 70.3636H116.143L118.251 76.4489H118.33L120.438 70.3636H121.711L118.469 79.1136C118.323 79.508 118.143 79.8345 117.927 80.093C117.712 80.3549 117.462 80.5488 117.177 80.6747C116.895 80.8007 116.577 80.8636 116.222 80.8636Z" fill="#333333"/>
<path d="M134.483 72.0739L133.429 72.3722C133.363 72.1965 133.265 72.0258 133.136 71.8601C133.01 71.6911 132.837 71.5518 132.619 71.4425C132.4 71.3331 132.12 71.2784 131.778 71.2784C131.311 71.2784 130.922 71.3861 130.61 71.6016C130.302 71.8137 130.148 72.0838 130.148 72.4119C130.148 72.7036 130.254 72.9339 130.466 73.103C130.678 73.272 131.009 73.4129 131.46 73.5256L132.594 73.804C133.277 73.9697 133.785 74.2232 134.12 74.5646C134.455 74.9027 134.622 75.3385 134.622 75.8722C134.622 76.3097 134.496 76.7008 134.244 77.0455C133.996 77.3902 133.648 77.6619 133.2 77.8608C132.753 78.0597 132.232 78.1591 131.639 78.1591C130.86 78.1591 130.216 77.9901 129.705 77.652C129.195 77.3139 128.872 76.8201 128.736 76.1705L129.849 75.892C129.955 76.303 130.156 76.6113 130.451 76.8168C130.749 77.0223 131.139 77.125 131.619 77.125C132.166 77.125 132.6 77.009 132.922 76.777C133.247 76.5417 133.409 76.2599 133.409 75.9318C133.409 75.6667 133.316 75.4446 133.131 75.2656C132.945 75.0833 132.66 74.9474 132.276 74.858L131.003 74.5597C130.304 74.3939 129.79 74.1371 129.462 73.7891C129.137 73.4377 128.974 72.9986 128.974 72.4716C128.974 72.0407 129.095 71.6596 129.337 71.3281C129.583 70.9967 129.916 70.7365 130.337 70.5476C130.761 70.3587 131.241 70.2642 131.778 70.2642C132.534 70.2642 133.127 70.4299 133.558 70.7614C133.992 71.0928 134.301 71.5303 134.483 72.0739ZM136.388 80.8636V70.3636H137.522V71.5767H137.661C137.747 71.4441 137.867 71.2751 138.019 71.0696C138.175 70.8608 138.397 70.6752 138.685 70.5128C138.977 70.3471 139.371 70.2642 139.868 70.2642C140.511 70.2642 141.078 70.425 141.569 70.7464C142.059 71.0679 142.442 71.5237 142.717 72.1136C142.992 72.7036 143.13 73.3996 143.13 74.2017C143.13 75.0104 142.992 75.7114 142.717 76.3047C142.442 76.8946 142.061 77.352 141.574 77.6768C141.086 77.9983 140.525 78.1591 139.888 78.1591C139.398 78.1591 139.005 78.0779 138.71 77.9155C138.415 77.7498 138.188 77.5625 138.029 77.3537C137.87 77.1416 137.747 76.9659 137.661 76.8267H137.562V80.8636H136.388ZM137.542 74.1818C137.542 74.7585 137.626 75.2673 137.795 75.7081C137.964 76.1456 138.211 76.4886 138.536 76.7372C138.861 76.9825 139.259 77.1051 139.729 77.1051C140.22 77.1051 140.629 76.9759 140.957 76.7173C141.289 76.4555 141.537 76.1042 141.703 75.6634C141.872 75.2192 141.956 74.7254 141.956 74.1818C141.956 73.6449 141.874 73.161 141.708 72.7301C141.546 72.2959 141.299 71.9529 140.967 71.701C140.639 71.4458 140.226 71.3182 139.729 71.3182C139.252 71.3182 138.851 71.4392 138.526 71.6811C138.201 71.9197 137.956 72.2545 137.79 72.6854C137.625 73.1129 137.542 73.6117 137.542 74.1818ZM148.121 78.1591C147.385 78.1591 146.751 77.9967 146.217 77.6719C145.687 77.3438 145.278 76.8864 144.989 76.2997C144.704 75.7098 144.562 75.0237 144.562 74.2415C144.562 73.4593 144.704 72.7699 144.989 72.1733C145.278 71.5734 145.679 71.1061 146.192 70.7713C146.709 70.4332 147.313 70.2642 148.002 70.2642C148.4 70.2642 148.792 70.3305 149.18 70.4631C149.568 70.5956 149.921 70.8111 150.239 71.1094C150.557 71.4044 150.811 71.7955 151 72.2827C151.189 72.7699 151.283 73.3698 151.283 74.0824V74.5795H145.397V73.5653H150.09C150.09 73.1345 150.004 72.75 149.831 72.4119C149.662 72.0739 149.421 71.8071 149.106 71.6115C148.794 71.416 148.426 71.3182 148.002 71.3182C147.535 71.3182 147.13 71.4342 146.789 71.6662C146.451 71.8949 146.191 72.1932 146.008 72.5611C145.826 72.929 145.735 73.3234 145.735 73.7443V74.4205C145.735 74.9972 145.834 75.486 146.033 75.8871C146.235 76.2848 146.515 76.5881 146.873 76.7969C147.231 77.0024 147.647 77.1051 148.121 77.1051C148.43 77.1051 148.708 77.062 148.956 76.9759C149.208 76.8864 149.425 76.7538 149.608 76.5781C149.79 76.3991 149.931 76.1771 150.03 75.9119L151.164 76.2301C151.045 76.6146 150.844 76.9527 150.562 77.2443C150.281 77.5327 149.933 77.758 149.518 77.9205C149.104 78.0795 148.638 78.1591 148.121 78.1591ZM156.17 78.1591C155.454 78.1591 154.838 77.9901 154.321 77.652C153.804 77.3139 153.406 76.8482 153.128 76.255C152.849 75.6617 152.71 74.9839 152.71 74.2216C152.71 73.446 152.853 72.7616 153.138 72.1683C153.426 71.5717 153.827 71.1061 154.341 70.7713C154.858 70.4332 155.461 70.2642 156.15 70.2642C156.687 70.2642 157.171 70.3636 157.602 70.5625C158.033 70.7614 158.386 71.0398 158.661 71.3977C158.936 71.7557 159.107 72.1733 159.173 72.6506H158C157.91 72.3026 157.711 71.9943 157.403 71.7259C157.098 71.4541 156.687 71.3182 156.17 71.3182C155.713 71.3182 155.312 71.4375 154.967 71.6761C154.626 71.9115 154.359 72.2446 154.167 72.6754C153.978 73.103 153.883 73.6051 153.883 74.1818C153.883 74.7718 153.976 75.2855 154.162 75.723C154.351 76.1605 154.616 76.5002 154.957 76.7422C155.302 76.9841 155.706 77.1051 156.17 77.1051C156.475 77.1051 156.752 77.0521 157.001 76.946C157.249 76.84 157.46 76.6875 157.632 76.4886C157.804 76.2898 157.927 76.0511 158 75.7727H159.173C159.107 76.2235 158.943 76.6295 158.681 76.9908C158.422 77.3487 158.079 77.6338 157.652 77.8459C157.228 78.0547 156.734 78.1591 156.17 78.1591ZM160.888 78V70.3636H162.062V78H160.888ZM161.485 69.0909C161.256 69.0909 161.059 69.013 160.893 68.8572C160.731 68.7015 160.65 68.5142 160.65 68.2955C160.65 68.0767 160.731 67.8894 160.893 67.7337C161.059 67.5779 161.256 67.5 161.485 67.5C161.714 67.5 161.909 67.5779 162.072 67.7337C162.237 67.8894 162.32 68.0767 162.32 68.2955C162.32 68.5142 162.237 68.7015 162.072 68.8572C161.909 69.013 161.714 69.0909 161.485 69.0909ZM166.458 78.179C165.974 78.179 165.535 78.0878 165.14 77.9055C164.746 77.7199 164.433 77.4531 164.201 77.1051C163.969 76.7538 163.853 76.3295 163.853 75.8324C163.853 75.3949 163.939 75.0402 164.111 74.7685C164.283 74.4934 164.514 74.2779 164.802 74.1222C165.091 73.9664 165.409 73.8504 165.757 73.7741C166.108 73.6946 166.461 73.6316 166.816 73.5852C167.28 73.5256 167.656 73.4808 167.944 73.451C168.236 73.4179 168.448 73.3632 168.581 73.2869C168.717 73.2107 168.784 73.0781 168.784 72.8892V72.8494C168.784 72.3589 168.65 71.9777 168.382 71.706C168.117 71.4342 167.714 71.2983 167.174 71.2983C166.614 71.2983 166.174 71.4209 165.856 71.6662C165.538 71.9115 165.314 72.1733 165.185 72.4517L164.071 72.054C164.27 71.59 164.535 71.2287 164.867 70.9702C165.202 70.7083 165.566 70.526 165.961 70.4233C166.358 70.3172 166.749 70.2642 167.134 70.2642C167.379 70.2642 167.661 70.294 167.979 70.3537C168.301 70.41 168.61 70.5277 168.909 70.7067C169.21 70.8857 169.461 71.1558 169.659 71.517C169.858 71.8783 169.958 72.3622 169.958 72.9688V78H168.784V76.9659H168.725C168.645 77.1316 168.513 77.3089 168.327 77.4979C168.141 77.6868 167.895 77.8475 167.586 77.9801C167.278 78.1127 166.902 78.179 166.458 78.179ZM166.637 77.125C167.101 77.125 167.492 77.0339 167.81 76.8516C168.132 76.6693 168.373 76.4339 168.536 76.1456C168.702 75.8572 168.784 75.554 168.784 75.2358V74.1619C168.735 74.2216 168.625 74.2763 168.456 74.326C168.291 74.3724 168.098 74.4138 167.88 74.4503C167.664 74.4834 167.454 74.5133 167.248 74.5398C167.046 74.563 166.882 74.5829 166.756 74.5994C166.451 74.6392 166.166 74.7038 165.901 74.7933C165.639 74.8795 165.427 75.0104 165.265 75.1861C165.105 75.3584 165.026 75.5937 165.026 75.892C165.026 76.2997 165.177 76.608 165.478 76.8168C165.783 77.0223 166.169 77.125 166.637 77.125ZM173.273 67.8182V78H172.099V67.8182H173.273ZM178.743 70.3636V71.358H174.785V70.3636H178.743ZM175.939 68.5341H177.112V75.8125C177.112 76.1439 177.16 76.3925 177.256 76.5582C177.355 76.7206 177.481 76.83 177.634 76.8864C177.79 76.9394 177.954 76.9659 178.126 76.9659C178.255 76.9659 178.361 76.9593 178.444 76.946C178.527 76.9295 178.593 76.9162 178.643 76.9062L178.882 77.9602C178.802 77.9901 178.691 78.0199 178.549 78.0497C178.406 78.0829 178.225 78.0994 178.007 78.0994C177.675 78.0994 177.35 78.0282 177.032 77.8857C176.717 77.7431 176.456 77.526 176.247 77.2344C176.041 76.9427 175.939 76.5748 175.939 76.1307V68.5341ZM181.263 80.8636C181.064 80.8636 180.887 80.8471 180.731 80.8139C180.575 80.7841 180.468 80.7543 180.408 80.7244L180.706 79.6903C180.991 79.7633 181.243 79.7898 181.462 79.7699C181.681 79.75 181.875 79.6522 182.044 79.4766C182.216 79.3042 182.373 79.0241 182.516 78.6364L182.735 78.0398L179.911 70.3636H181.184L183.292 76.4489H183.371L185.479 70.3636H186.752L183.51 79.1136C183.364 79.508 183.184 79.8345 182.968 80.093C182.753 80.3549 182.503 80.5488 182.218 80.6747C181.936 80.8007 181.618 80.8636 181.263 80.8636Z" fill="#333333"/>
<path d="M45.5 80.5L41.8808 76.8808M41.8808 76.8808C42.4999 76.2617 42.991 75.5268 43.326 74.7179C43.661 73.9091 43.8335 73.0422 43.8335 72.1667C43.8335 71.2912 43.6611 70.4242 43.326 69.6154C42.991 68.8065 42.4999 68.0716 41.8808 67.4525C41.2617 66.8334 40.5268 66.3423 39.7179 66.0073C38.9091 65.6723 38.0422 65.4998 37.1667 65.4998C36.2912 65.4998 35.4242 65.6723 34.6154 66.0073C33.8065 66.3423 33.0716 66.8334 32.4525 67.4525C31.2022 68.7028 30.4998 70.3985 30.4998 72.1667C30.4998 73.9348 31.2022 75.6305 32.4525 76.8808C33.7028 78.1311 35.3985 78.8335 37.1667 78.8335C38.9348 78.8335 40.6305 78.1311 41.8808 76.8808Z" stroke="#333333" stroke-width="0.833333" stroke-linecap="round" stroke-linejoin="round"/>
<rect x="12" y="83" width="343" height="12" fill="url(#paint6_linear_1114_4155)"/>
<rect x="355" y="63" width="343" height="12" transform="rotate(-180 355 63)" fill="url(#paint7_linear_1114_4155)"/>
</g>
<rect x="12.25" y="51.25" width="338.5" height="43.5" rx="11.75" stroke="#145DB8" stroke-width="0.5"/>
</g>
<path d="M17.0238 112.442L20.5106 112.475C20.5523 112.476 20.5932 112.487 20.6293 112.508C20.6654 112.529 20.6957 112.559 20.7173 112.594L22.4893 115.597C22.5165 115.643 22.5578 115.678 22.6069 115.698C22.656 115.718 22.7102 115.721 22.7614 115.708C22.8126 115.694 22.8579 115.664 22.8905 115.622C22.9231 115.58 22.9412 115.529 22.942 115.476L22.9751 111.989C22.9759 111.948 22.9873 111.907 23.0081 111.871C23.029 111.835 23.0587 111.804 23.0944 111.783L26.0975 110.011C26.1429 109.983 26.1783 109.942 26.1981 109.893C26.218 109.844 26.2213 109.79 26.2076 109.739C26.1939 109.687 26.1639 109.642 26.1221 109.61C26.0804 109.577 26.0291 109.559 25.9762 109.558L22.4894 109.525C22.4477 109.524 22.4069 109.513 22.3707 109.492C22.3346 109.471 22.3043 109.441 22.2828 109.406L20.5108 106.402C20.4835 106.357 20.4422 106.322 20.3931 106.302C20.344 106.282 20.2898 106.279 20.2386 106.292C20.1874 106.306 20.1421 106.336 20.1095 106.378C20.077 106.42 20.0589 106.471 20.058 106.524L20.0249 110.011C20.0241 110.052 20.0128 110.093 19.9919 110.129C19.971 110.165 19.9413 110.196 19.9056 110.217L16.9025 111.989C16.8571 112.016 16.8218 112.058 16.8019 112.107C16.782 112.156 16.7787 112.21 16.7924 112.261C16.8061 112.313 16.8361 112.358 16.8779 112.39C16.9196 112.423 16.9709 112.441 17.0238 112.442Z" stroke="#145DB8" stroke-width="0.46875" stroke-linecap="round" stroke-linejoin="round"/>
<path d="M49.0238 112.442L52.5106 112.475C52.5523 112.476 52.5932 112.487 52.6293 112.508C52.6654 112.529 52.6957 112.559 52.7173 112.594L54.4893 115.597C54.5165 115.643 54.5578 115.678 54.6069 115.698C54.656 115.718 54.7102 115.721 54.7614 115.708C54.8126 115.694 54.8579 115.664 54.8905 115.622C54.9231 115.58 54.9412 115.529 54.942 115.476L54.9751 111.989C54.9759 111.948 54.9873 111.907 55.0081 111.871C55.029 111.835 55.0587 111.804 55.0944 111.783L58.0975 110.011C58.1429 109.983 58.1783 109.942 58.1981 109.893C58.218 109.844 58.2213 109.79 58.2076 109.739C58.1939 109.687 58.1639 109.642 58.1221 109.61C58.0804 109.577 58.0291 109.559 57.9762 109.558L54.4894 109.525C54.4477 109.524 54.4069 109.513 54.3707 109.492C54.3346 109.471 54.3043 109.441 54.2828 109.406L52.5108 106.402C52.4835 106.357 52.4422 106.322 52.3931 106.302C52.344 106.282 52.2898 106.279 52.2386 106.292C52.1874 106.306 52.1421 106.336 52.1095 106.378C52.077 106.42 52.0589 106.471 52.058 106.524L52.0249 110.011C52.0241 110.052 52.0128 110.093 51.9919 110.129C51.971 110.165 51.9413 110.196 51.9056 110.217L48.9025 111.989C48.8571 112.016 48.8218 112.058 48.8019 112.107C48.782 112.156 48.7787 112.21 48.7924 112.261C48.8061 112.313 48.8361 112.358 48.8779 112.39C48.9196 112.423 48.9709 112.441 49.0238 112.442Z" stroke="#145DB8" stroke-width="0.46875" stroke-linecap="round" stroke-linejoin="round"/>
<path d="M81.0238 112.442L84.5106 112.475C84.5523 112.476 84.5932 112.487 84.6293 112.508C84.6654 112.529 84.6957 112.559 84.7173 112.594L86.4893 115.597C86.5165 115.643 86.5578 115.678 86.6069 115.698C86.656 115.718 86.7102 115.721 86.7614 115.708C86.8126 115.694 86.8579 115.664 86.8905 115.622C86.9231 115.58 86.9412 115.529 86.942 115.476L86.9751 111.989C86.9759 111.948 86.9873 111.907 87.0081 111.871C87.029 111.835 87.0587 111.804 87.0944 111.783L90.0975 110.011C90.1429 109.983 90.1783 109.942 90.1981 109.893C90.218 109.844 90.2213 109.79 90.2076 109.739C90.1939 109.687 90.1639 109.642 90.1221 109.61C90.0804 109.577 90.0291 109.559 89.9762 109.558L86.4894 109.525C86.4477 109.524 86.4069 109.513 86.3707 109.492C86.3346 109.471 86.3043 109.441 86.2828 109.406L84.5108 106.402C84.4835 106.357 84.4422 106.322 84.3931 106.302C84.344 106.282 84.2898 106.279 84.2386 106.292C84.1874 106.306 84.1421 106.336 84.1095 106.378C84.077 106.42 84.0589 106.471 84.058 106.524L84.0249 110.011C84.0241 110.052 84.0128 110.093 83.9919 110.129C83.971 110.165 83.9413 110.196 83.9056 110.217L80.9025 111.989C80.8571 112.016 80.8218 112.058 80.8019 112.107C80.782 112.156 80.7787 112.21 80.7924 112.261C80.8061 112.313 80.8361 112.358 80.8779 112.39C80.9196 112.423 80.9709 112.441 81.0238 112.442Z" fill="url(#paint8_linear_1114_4155)" stroke="#145DB8" stroke-width="0.125" stroke-linecap="round" stroke-linejoin="round"/>
<path d="M113.024 112.442L116.511 112.475C116.552 112.476 116.593 112.487 116.629 112.508C116.665 112.529 116.696 112.559 116.717 112.594L118.489 115.597C118.517 115.643 118.558 115.678 118.607 115.698C118.656 115.718 118.71 115.721 118.761 115.708C118.813 115.694 118.858 115.664 118.89 115.622C118.923 115.58 118.941 115.529 118.942 115.476L118.975 111.989C118.976 111.948 118.987 111.907 119.008 111.871C119.029 111.835 119.059 111.804 119.094 111.783L122.098 110.011C122.143 109.983 122.178 109.942 122.198 109.893C122.218 109.844 122.221 109.79 122.208 109.739C122.194 109.687 122.164 109.642 122.122 109.61C122.08 109.577 122.029 109.559 121.976 109.558L118.489 109.525C118.448 109.524 118.407 109.513 118.371 109.492C118.335 109.471 118.304 109.441 118.283 109.406L116.511 106.402C116.484 106.357 116.442 106.322 116.393 106.302C116.344 106.282 116.29 106.279 116.239 106.292C116.187 106.306 116.142 106.336 116.11 106.378C116.077 106.42 116.059 106.471 116.058 106.524L116.025 110.011C116.024 110.052 116.013 110.093 115.992 110.129C115.971 110.165 115.941 110.196 115.906 110.217L112.903 111.989C112.857 112.016 112.822 112.058 112.802 112.107C112.782 112.156 112.779 112.21 112.792 112.261C112.806 112.313 112.836 112.358 112.878 112.39C112.92 112.423 112.971 112.441 113.024 112.442Z" stroke="#145DB8" stroke-width="0.46875" stroke-linecap="round" stroke-linejoin="round"/>
<path d="M145.024 112.442L148.511 112.475C148.552 112.476 148.593 112.487 148.629 112.508C148.665 112.529 148.696 112.559 148.717 112.594L150.489 115.597C150.517 115.643 150.558 115.678 150.607 115.698C150.656 115.718 150.71 115.721 150.761 115.708C150.813 115.694 150.858 115.664 150.89 115.622C150.923 115.58 150.941 115.529 150.942 115.476L150.975 111.989C150.976 111.948 150.987 111.907 151.008 111.871C151.029 111.835 151.059 111.804 151.094 111.783L154.098 110.011C154.143 109.983 154.178 109.942 154.198 109.893C154.218 109.844 154.221 109.79 154.208 109.739C154.194 109.687 154.164 109.642 154.122 109.61C154.08 109.577 154.029 109.559 153.976 109.558L150.489 109.525C150.448 109.524 150.407 109.513 150.371 109.492C150.335 109.471 150.304 109.441 150.283 109.406L148.511 106.402C148.484 106.357 148.442 106.322 148.393 106.302C148.344 106.282 148.29 106.279 148.239 106.292C148.187 106.306 148.142 106.336 148.11 106.378C148.077 106.42 148.059 106.471 148.058 106.524L148.025 110.011C148.024 110.052 148.013 110.093 147.992 110.129C147.971 110.165 147.941 110.196 147.906 110.217L144.903 111.989C144.857 112.016 144.822 112.058 144.802 112.107C144.782 112.156 144.779 112.21 144.792 112.261C144.806 112.313 144.836 112.358 144.878 112.39C144.92 112.423 144.971 112.441 145.024 112.442Z" stroke="#145DB8" stroke-width="0.46875" stroke-linecap="round" stroke-linejoin="round"/>
<path d="M177.024 112.442L180.511 112.475C180.552 112.476 180.593 112.487 180.629 112.508C180.665 112.529 180.696 112.559 180.717 112.594L182.489 115.597C182.517 115.643 182.558 115.678 182.607 115.698C182.656 115.718 182.71 115.721 182.761 115.708C182.813 115.694 182.858 115.664 182.89 115.622C182.923 115.58 182.941 115.529 182.942 115.476L182.975 111.989C182.976 111.948 182.987 111.907 183.008 111.871C183.029 111.835 183.059 111.804 183.094 111.783L186.098 110.011C186.143 109.983 186.178 109.942 186.198 109.893C186.218 109.844 186.221 109.79 186.208 109.739C186.194 109.687 186.164 109.642 186.122 109.61C186.08 109.577 186.029 109.559 185.976 109.558L182.489 109.525C182.448 109.524 182.407 109.513 182.371 109.492C182.335 109.471 182.304 109.441 182.283 109.406L180.511 106.402C180.484 106.357 180.442 106.322 180.393 106.302C180.344 106.282 180.29 106.279 180.239 106.292C180.187 106.306 180.142 106.336 180.11 106.378C180.077 106.42 180.059 106.471 180.058 106.524L180.025 110.011C180.024 110.052 180.013 110.093 179.992 110.129C179.971 110.165 179.941 110.196 179.906 110.217L176.903 111.989C176.857 112.016 176.822 112.058 176.802 112.107C176.782 112.156 176.779 112.21 176.792 112.261C176.806 112.313 176.836 112.358 176.878 112.39C176.92 112.423 176.971 112.441 177.024 112.442Z" stroke="#145DB8" stroke-width="0.46875" stroke-linecap="round" stroke-linejoin="round"/>
<path d="M209.024 112.442L212.511 112.475C212.552 112.476 212.593 112.487 212.629 112.508C212.665 112.529 212.696 112.559 212.717 112.594L214.489 115.597C214.517 115.643 214.558 115.678 214.607 115.698C214.656 115.718 214.71 115.721 214.761 115.708C214.813 115.694 214.858 115.664 214.89 115.622C214.923 115.58 214.941 115.529 214.942 115.476L214.975 111.989C214.976 111.948 214.987 111.907 215.008 111.871C215.029 111.835 215.059 111.804 215.094 111.783L218.098 110.011C218.143 109.983 218.178 109.942 218.198 109.893C218.218 109.844 218.221 109.79 218.208 109.739C218.194 109.687 218.164 109.642 218.122 109.61C218.08 109.577 218.029 109.559 217.976 109.558L214.489 109.525C214.448 109.524 214.407 109.513 214.371 109.492C214.335 109.471 214.304 109.441 214.283 109.406L212.511 106.402C212.484 106.357 212.442 106.322 212.393 106.302C212.344 106.282 212.29 106.279 212.239 106.292C212.187 106.306 212.142 106.336 212.11 106.378C212.077 106.42 212.059 106.471 212.058 106.524L212.025 110.011C212.024 110.052 212.013 110.093 211.992 110.129C211.971 110.165 211.941 110.196 211.906 110.217L208.903 111.989C208.857 112.016 208.822 112.058 208.802 112.107C208.782 112.156 208.779 112.21 208.792 112.261C208.806 112.313 208.836 112.358 208.878 112.39C208.92 112.423 208.971 112.441 209.024 112.442Z" fill="url(#paint9_linear_1114_4155)" stroke="#145DB8" stroke-width="0.125" stroke-linecap="round" stroke-linejoin="round"/>
<path d="M241.024 112.442L244.511 112.475C244.552 112.476 244.593 112.487 244.629 112.508C244.665 112.529 244.696 112.559 244.717 112.594L246.489 115.597C246.517 115.643 246.558 115.678 246.607 115.698C246.656 115.718 246.71 115.721 246.761 115.708C246.813 115.694 246.858 115.664 246.89 115.622C246.923 115.58 246.941 115.529 246.942 115.476L246.975 111.989C246.976 111.948 246.987 111.907 247.008 111.871C247.029 111.835 247.059 111.804 247.094 111.783L250.098 110.011C250.143 109.983 250.178 109.942 250.198 109.893C250.218 109.844 250.221 109.79 250.208 109.739C250.194 109.687 250.164 109.642 250.122 109.61C250.08 109.577 250.029 109.559 249.976 109.558L246.489 109.525C246.448 109.524 246.407 109.513 246.371 109.492C246.335 109.471 246.304 109.441 246.283 109.406L244.511 106.402C244.484 106.357 244.442 106.322 244.393 106.302C244.344 106.282 244.29 106.279 244.239 106.292C244.187 106.306 244.142 106.336 244.11 106.378C244.077 106.42 244.059 106.471 244.058 106.524L244.025 110.011C244.024 110.052 244.013 110.093 243.992 110.129C243.971 110.165 243.941 110.196 243.906 110.217L240.903 111.989C240.857 112.016 240.822 112.058 240.802 112.107C240.782 112.156 240.779 112.21 240.792 112.261C240.806 112.313 240.836 112.358 240.878 112.39C240.92 112.423 240.971 112.441 241.024 112.442Z" stroke="#145DB8" stroke-width="0.46875" stroke-linecap="round" stroke-linejoin="round"/>
<path d="M273.024 112.442L276.511 112.475C276.552 112.476 276.593 112.487 276.629 112.508C276.665 112.529 276.696 112.559 276.717 112.594L278.489 115.597C278.517 115.643 278.558 115.678 278.607 115.698C278.656 115.718 278.71 115.721 278.761 115.708C278.813 115.694 278.858 115.664 278.89 115.622C278.923 115.58 278.941 115.529 278.942 115.476L278.975 111.989C278.976 111.948 278.987 111.907 279.008 111.871C279.029 111.835 279.059 111.804 279.094 111.783L282.098 110.011C282.143 109.983 282.178 109.942 282.198 109.893C282.218 109.844 282.221 109.79 282.208 109.739C282.194 109.687 282.164 109.642 282.122 109.61C282.08 109.577 282.029 109.559 281.976 109.558L278.489 109.525C278.448 109.524 278.407 109.513 278.371 109.492C278.335 109.471 278.304 109.441 278.283 109.406L276.511 106.402C276.484 106.357 276.442 106.322 276.393 106.302C276.344 106.282 276.29 106.279 276.239 106.292C276.187 106.306 276.142 106.336 276.11 106.378C276.077 106.42 276.059 106.471 276.058 106.524L276.025 110.011C276.024 110.052 276.013 110.093 275.992 110.129C275.971 110.165 275.941 110.196 275.906 110.217L272.903 111.989C272.857 112.016 272.822 112.058 272.802 112.107C272.782 112.156 272.779 112.21 272.792 112.261C272.806 112.313 272.836 112.358 272.878 112.39C272.92 112.423 272.971 112.441 273.024 112.442Z" stroke="#145DB8" stroke-width="0.46875" stroke-linecap="round" stroke-linejoin="round"/>
<path d="M305.024 112.442L308.511 112.475C308.552 112.476 308.593 112.487 308.629 112.508C308.665 112.529 308.696 112.559 308.717 112.594L310.489 115.597C310.517 115.643 310.558 115.678 310.607 115.698C310.656 115.718 310.71 115.721 310.761 115.708C310.813 115.694 310.858 115.664 310.89 115.622C310.923 115.58 310.941 115.529 310.942 115.476L310.975 111.989C310.976 111.948 310.987 111.907 311.008 111.871C311.029 111.835 311.059 111.804 311.094 111.783L314.098 110.011C314.143 109.983 314.178 109.942 314.198 109.893C314.218 109.844 314.221 109.79 314.208 109.739C314.194 109.687 314.164 109.642 314.122 109.61C314.08 109.577 314.029 109.559 313.976 109.558L310.489 109.525C310.448 109.524 310.407 109.513 310.371 109.492C310.335 109.471 310.304 109.441 310.283 109.406L308.511 106.402C308.484 106.357 308.442 106.322 308.393 106.302C308.344 106.282 308.29 106.279 308.239 106.292C308.187 106.306 308.142 106.336 308.11 106.378C308.077 106.42 308.059 106.471 308.058 106.524L308.025 110.011C308.024 110.052 308.013 110.093 307.992 110.129C307.971 110.165 307.941 110.196 307.906 110.217L304.903 111.989C304.857 112.016 304.822 112.058 304.802 112.107C304.782 112.156 304.779 112.21 304.792 112.261C304.806 112.313 304.836 112.358 304.878 112.39C304.92 112.423 304.971 112.441 305.024 112.442Z" stroke="#145DB8" stroke-width="0.46875" stroke-linecap="round" stroke-linejoin="round"/>
<path d="M337.024 112.442L340.511 112.475C340.552 112.476 340.593 112.487 340.629 112.508C340.665 112.529 340.696 112.559 340.717 112.594L342.489 115.597C342.517 115.643 342.558 115.678 342.607 115.698C342.656 115.718 342.71 115.721 342.761 115.708C342.813 115.694 342.858 115.664 342.89 115.622C342.923 115.58 342.941 115.529 342.942 115.476L342.975 111.989C342.976 111.948 342.987 111.907 343.008 111.871C343.029 111.835 343.059 111.804 343.094 111.783L346.098 110.011C346.143 109.983 346.178 109.942 346.198 109.893C346.218 109.844 346.221 109.79 346.208 109.739C346.194 109.687 346.164 109.642 346.122 109.61C346.08 109.577 346.029 109.559 345.976 109.558L342.489 109.525C342.448 109.524 342.407 109.513 342.371 109.492C342.335 109.471 342.304 109.441 342.283 109.406L340.511 106.402C340.484 106.357 340.442 106.322 340.393 106.302C340.344 106.282 340.29 106.279 340.239 106.292C340.187 106.306 340.142 106.336 340.11 106.378C340.077 106.42 340.059 106.471 340.058 106.524L340.025 110.011C340.024 110.052 340.013 110.093 339.992 110.129C339.971 110.165 339.941 110.196 339.906 110.217L336.903 111.989C336.857 112.016 336.822 112.058 336.802 112.107C336.782 112.156 336.779 112.21 336.792 112.261C336.806 112.313 336.836 112.358 336.878 112.39C336.92 112.423 336.971 112.441 337.024 112.442Z" fill="url(#paint10_linear_1114_4155)" stroke="#145DB8" stroke-width="0.125" stroke-linecap="round" stroke-linejoin="round"/>
<path d="M17.0238 139.442L20.5106 139.475C20.5523 139.476 20.5932 139.487 20.6293 139.508C20.6654 139.529 20.6957 139.559 20.7173 139.594L22.4893 142.597C22.5165 142.643 22.5578 142.678 22.6069 142.698C22.656 142.718 22.7102 142.721 22.7614 142.708C22.8126 142.694 22.8579 142.664 22.8905 142.622C22.9231 142.58 22.9412 142.529 22.942 142.476L22.9751 138.989C22.9759 138.948 22.9873 138.907 23.0081 138.871C23.029 138.835 23.0587 138.804 23.0944 138.783L26.0975 137.011C26.1429 136.983 26.1783 136.942 26.1981 136.893C26.218 136.844 26.2213 136.79 26.2076 136.739C26.1939 136.687 26.1639 136.642 26.1221 136.61C26.0804 136.577 26.0291 136.559 25.9762 136.558L22.4894 136.525C22.4477 136.524 22.4069 136.513 22.3707 136.492C22.3346 136.471 22.3043 136.441 22.2828 136.406L20.5108 133.402C20.4835 133.357 20.4422 133.322 20.3931 133.302C20.344 133.282 20.2898 133.279 20.2386 133.292C20.1874 133.306 20.1421 133.336 20.1095 133.378C20.077 133.42 20.0589 133.471 20.058 133.524L20.0249 137.011C20.0241 137.052 20.0128 137.093 19.9919 137.129C19.971 137.165 19.9413 137.196 19.9056 137.217L16.9025 138.989C16.8571 139.016 16.8218 139.058 16.8019 139.107C16.782 139.156 16.7787 139.21 16.7924 139.261C16.8061 139.313 16.8361 139.358 16.8779 139.39C16.9196 139.423 16.9709 139.441 17.0238 139.442Z" stroke="#145DB8" stroke-width="0.46875" stroke-linecap="round" stroke-linejoin="round"/>
<path d="M49.0238 139.442L52.5106 139.475C52.5523 139.476 52.5932 139.487 52.6293 139.508C52.6654 139.529 52.6957 139.559 52.7173 139.594L54.4893 142.597C54.5165 142.643 54.5578 142.678 54.6069 142.698C54.656 142.718 54.7102 142.721 54.7614 142.708C54.8126 142.694 54.8579 142.664 54.8905 142.622C54.9231 142.58 54.9412 142.529 54.942 142.476L54.9751 138.989C54.9759 138.948 54.9873 138.907 55.0081 138.871C55.029 138.835 55.0587 138.804 55.0944 138.783L58.0975 137.011C58.1429 136.983 58.1783 136.942 58.1981 136.893C58.218 136.844 58.2213 136.79 58.2076 136.739C58.1939 136.687 58.1639 136.642 58.1221 136.61C58.0804 136.577 58.0291 136.559 57.9762 136.558L54.4894 136.525C54.4477 136.524 54.4069 136.513 54.3707 136.492C54.3346 136.471 54.3043 136.441 54.2828 136.406L52.5108 133.402C52.4835 133.357 52.4422 133.322 52.3931 133.302C52.344 133.282 52.2898 133.279 52.2386 133.292C52.1874 133.306 52.1421 133.336 52.1095 133.378C52.077 133.42 52.0589 133.471 52.058 133.524L52.0249 137.011C52.0241 137.052 52.0128 137.093 51.9919 137.129C51.971 137.165 51.9413 137.196 51.9056 137.217L48.9025 138.989C48.8571 139.016 48.8218 139.058 48.8019 139.107C48.782 139.156 48.7787 139.21 48.7924 139.261C48.8061 139.313 48.8361 139.358 48.8779 139.39C48.9196 139.423 48.9709 139.441 49.0238 139.442Z" stroke="#145DB8" stroke-width="0.46875" stroke-linecap="round" stroke-linejoin="round"/>
<path d="M81.0238 139.442L84.5106 139.475C84.5523 139.476 84.5932 139.487 84.6293 139.508C84.6654 139.529 84.6957 139.559 84.7173 139.594L86.4893 142.597C86.5165 142.643 86.5578 142.678 86.6069 142.698C86.656 142.718 86.7102 142.721 86.7614 142.708C86.8126 142.694 86.8579 142.664 86.8905 142.622C86.9231 142.58 86.9412 142.529 86.942 142.476L86.9751 138.989C86.9759 138.948 86.9873 138.907 87.0081 138.871C87.029 138.835 87.0587 138.804 87.0944 138.783L90.0975 137.011C90.1429 136.983 90.1783 136.942 90.1981 136.893C90.218 136.844 90.2213 136.79 90.2076 136.739C90.1939 136.687 90.1639 136.642 90.1221 136.61C90.0804 136.577 90.0291 136.559 89.9762 136.558L86.4894 136.525C86.4477 136.524 86.4069 136.513 86.3707 136.492C86.3346 136.471 86.3043 136.441 86.2828 136.406L84.5108 133.402C84.4835 133.357 84.4422 133.322 84.3931 133.302C84.344 133.282 84.2898 133.279 84.2386 133.292C84.1874 133.306 84.1421 133.336 84.1095 133.378C84.077 133.42 84.0589 133.471 84.058 133.524L84.0249 137.011C84.0241 137.052 84.0128 137.093 83.9919 137.129C83.971 137.165 83.9413 137.196 83.9056 137.217L80.9025 138.989C80.8571 139.016 80.8218 139.058 80.8019 139.107C80.782 139.156 80.7787 139.21 80.7924 139.261C80.8061 139.313 80.8361 139.358 80.8779 139.39C80.9196 139.423 80.9709 139.441 81.0238 139.442Z" fill="url(#paint11_linear_1114_4155)" stroke="#145DB8" stroke-width="0.125" stroke-linecap="round" stroke-linejoin="round"/>
<path d="M113.024 139.442L116.511 139.475C116.552 139.476 116.593 139.487 116.629 139.508C116.665 139.529 116.696 139.559 116.717 139.594L118.489 142.597C118.517 142.643 118.558 142.678 118.607 142.698C118.656 142.718 118.71 142.721 118.761 142.708C118.813 142.694 118.858 142.664 118.89 142.622C118.923 142.58 118.941 142.529 118.942 142.476L118.975 138.989C118.976 138.948 118.987 138.907 119.008 138.871C119.029 138.835 119.059 138.804 119.094 138.783L122.098 137.011C122.143 136.983 122.178 136.942 122.198 136.893C122.218 136.844 122.221 136.79 122.208 136.739C122.194 136.687 122.164 136.642 122.122 136.61C122.08 136.577 122.029 136.559 121.976 136.558L118.489 136.525C118.448 136.524 118.407 136.513 118.371 136.492C118.335 136.471 118.304 136.441 118.283 136.406L116.511 133.402C116.484 133.357 116.442 133.322 116.393 133.302C116.344 133.282 116.29 133.279 116.239 133.292C116.187 133.306 116.142 133.336 116.11 133.378C116.077 133.42 116.059 133.471 116.058 133.524L116.025 137.011C116.024 137.052 116.013 137.093 115.992 137.129C115.971 137.165 115.941 137.196 115.906 137.217L112.903 138.989C112.857 139.016 112.822 139.058 112.802 139.107C112.782 139.156 112.779 139.21 112.792 139.261C112.806 139.313 112.836 139.358 112.878 139.39C112.92 139.423 112.971 139.441 113.024 139.442Z" stroke="#145DB8" stroke-width="0.46875" stroke-linecap="round" stroke-linejoin="round"/>
<path d="M145.024 139.442L148.511 139.475C148.552 139.476 148.593 139.487 148.629 139.508C148.665 139.529 148.696 139.559 148.717 139.594L150.489 142.597C150.517 142.643 150.558 142.678 150.607 142.698C150.656 142.718 150.71 142.721 150.761 142.708C150.813 142.694 150.858 142.664 150.89 142.622C150.923 142.58 150.941 142.529 150.942 142.476L150.975 138.989C150.976 138.948 150.987 138.907 151.008 138.871C151.029 138.835 151.059 138.804 151.094 138.783L154.098 137.011C154.143 136.983 154.178 136.942 154.198 136.893C154.218 136.844 154.221 136.79 154.208 136.739C154.194 136.687 154.164 136.642 154.122 136.61C154.08 136.577 154.029 136.559 153.976 136.558L150.489 136.525C150.448 136.524 150.407 136.513 150.371 136.492C150.335 136.471 150.304 136.441 150.283 136.406L148.511 133.402C148.484 133.357 148.442 133.322 148.393 133.302C148.344 133.282 148.29 133.279 148.239 133.292C148.187 133.306 148.142 133.336 148.11 133.378C148.077 133.42 148.059 133.471 148.058 133.524L148.025 137.011C148.024 137.052 148.013 137.093 147.992 137.129C147.971 137.165 147.941 137.196 147.906 137.217L144.903 138.989C144.857 139.016 144.822 139.058 144.802 139.107C144.782 139.156 144.779 139.21 144.792 139.261C144.806 139.313 144.836 139.358 144.878 139.39C144.92 139.423 144.971 139.441 145.024 139.442Z" stroke="#145DB8" stroke-width="0.46875" stroke-linecap="round" stroke-linejoin="round"/>
<path d="M177.024 139.442L180.511 139.475C180.552 139.476 180.593 139.487 180.629 139.508C180.665 139.529 180.696 139.559 180.717 139.594L182.489 142.597C182.517 142.643 182.558 142.678 182.607 142.698C182.656 142.718 182.71 142.721 182.761 142.708C182.813 142.694 182.858 142.664 182.89 142.622C182.923 142.58 182.941 142.529 182.942 142.476L182.975 138.989C182.976 138.948 182.987 138.907 183.008 138.871C183.029 138.835 183.059 138.804 183.094 138.783L186.098 137.011C186.143 136.983 186.178 136.942 186.198 136.893C186.218 136.844 186.221 136.79 186.208 136.739C186.194 136.687 186.164 136.642 186.122 136.61C186.08 136.577 186.029 136.559 185.976 136.558L182.489 136.525C182.448 136.524 182.407 136.513 182.371 136.492C182.335 136.471 182.304 136.441 182.283 136.406L180.511 133.402C180.484 133.357 180.442 133.322 180.393 133.302C180.344 133.282 180.29 133.279 180.239 133.292C180.187 133.306 180.142 133.336 180.11 133.378C180.077 133.42 180.059 133.471 180.058 133.524L180.025 137.011C180.024 137.052 180.013 137.093 179.992 137.129C179.971 137.165 179.941 137.196 179.906 137.217L176.903 138.989C176.857 139.016 176.822 139.058 176.802 139.107C176.782 139.156 176.779 139.21 176.792 139.261C176.806 139.313 176.836 139.358 176.878 139.39C176.92 139.423 176.971 139.441 177.024 139.442Z" stroke="#145DB8" stroke-width="0.46875" stroke-linecap="round" stroke-linejoin="round"/>
<path d="M209.024 139.442L212.511 139.475C212.552 139.476 212.593 139.487 212.629 139.508C212.665 139.529 212.696 139.559 212.717 139.594L214.489 142.597C214.517 142.643 214.558 142.678 214.607 142.698C214.656 142.718 214.71 142.721 214.761 142.708C214.813 142.694 214.858 142.664 214.89 142.622C214.923 142.58 214.941 142.529 214.942 142.476L214.975 138.989C214.976 138.948 214.987 138.907 215.008 138.871C215.029 138.835 215.059 138.804 215.094 138.783L218.098 137.011C218.143 136.983 218.178 136.942 218.198 136.893C218.218 136.844 218.221 136.79 218.208 136.739C218.194 136.687 218.164 136.642 218.122 136.61C218.08 136.577 218.029 136.559 217.976 136.558L214.489 136.525C214.448 136.524 214.407 136.513 214.371 136.492C214.335 136.471 214.304 136.441 214.283 136.406L212.511 133.402C212.484 133.357 212.442 133.322 212.393 133.302C212.344 133.282 212.29 133.279 212.239 133.292C212.187 133.306 212.142 133.336 212.11 133.378C212.077 133.42 212.059 133.471 212.058 133.524L212.025 137.011C212.024 137.052 212.013 137.093 211.992 137.129C211.971 137.165 211.941 137.196 211.906 137.217L208.903 138.989C208.857 139.016 208.822 139.058 208.802 139.107C208.782 139.156 208.779 139.21 208.792 139.261C208.806 139.313 208.836 139.358 208.878 139.39C208.92 139.423 208.971 139.441 209.024 139.442Z" fill="url(#paint12_linear_1114_4155)" stroke="#145DB8" stroke-width="0.125" stroke-linecap="round" stroke-linejoin="round"/>
<path d="M241.024 139.442L244.511 139.475C244.552 139.476 244.593 139.487 244.629 139.508C244.665 139.529 244.696 139.559 244.717 139.594L246.489 142.597C246.517 142.643 246.558 142.678 246.607 142.698C246.656 142.718 246.71 142.721 246.761 142.708C246.813 142.694 246.858 142.664 246.89 142.622C246.923 142.58 246.941 142.529 246.942 142.476L246.975 138.989C246.976 138.948 246.987 138.907 247.008 138.871C247.029 138.835 247.059 138.804 247.094 138.783L250.098 137.011C250.143 136.983 250.178 136.942 250.198 136.893C250.218 136.844 250.221 136.79 250.208 136.739C250.194 136.687 250.164 136.642 250.122 136.61C250.08 136.577 250.029 136.559 249.976 136.558L246.489 136.525C246.448 136.524 246.407 136.513 246.371 136.492C246.335 136.471 246.304 136.441 246.283 136.406L244.511 133.402C244.484 133.357 244.442 133.322 244.393 133.302C244.344 133.282 244.29 133.279 244.239 133.292C244.187 133.306 244.142 133.336 244.11 133.378C244.077 133.42 244.059 133.471 244.058 133.524L244.025 137.011C244.024 137.052 244.013 137.093 243.992 137.129C243.971 137.165 243.941 137.196 243.906 137.217L240.903 138.989C240.857 139.016 240.822 139.058 240.802 139.107C240.782 139.156 240.779 139.21 240.792 139.261C240.806 139.313 240.836 139.358 240.878 139.39C240.92 139.423 240.971 139.441 241.024 139.442Z" stroke="#145DB8" stroke-width="0.46875" stroke-linecap="round" stroke-linejoin="round"/>
<path d="M273.024 139.442L276.511 139.475C276.552 139.476 276.593 139.487 276.629 139.508C276.665 139.529 276.696 139.559 276.717 139.594L278.489 142.597C278.517 142.643 278.558 142.678 278.607 142.698C278.656 142.718 278.71 142.721 278.761 142.708C278.813 142.694 278.858 142.664 278.89 142.622C278.923 142.58 278.941 142.529 278.942 142.476L278.975 138.989C278.976 138.948 278.987 138.907 279.008 138.871C279.029 138.835 279.059 138.804 279.094 138.783L282.098 137.011C282.143 136.983 282.178 136.942 282.198 136.893C282.218 136.844 282.221 136.79 282.208 136.739C282.194 136.687 282.164 136.642 282.122 136.61C282.08 136.577 282.029 136.559 281.976 136.558L278.489 136.525C278.448 136.524 278.407 136.513 278.371 136.492C278.335 136.471 278.304 136.441 278.283 136.406L276.511 133.402C276.484 133.357 276.442 133.322 276.393 133.302C276.344 133.282 276.29 133.279 276.239 133.292C276.187 133.306 276.142 133.336 276.11 133.378C276.077 133.42 276.059 133.471 276.058 133.524L276.025 137.011C276.024 137.052 276.013 137.093 275.992 137.129C275.971 137.165 275.941 137.196 275.906 137.217L272.903 138.989C272.857 139.016 272.822 139.058 272.802 139.107C272.782 139.156 272.779 139.21 272.792 139.261C272.806 139.313 272.836 139.358 272.878 139.39C272.92 139.423 272.971 139.441 273.024 139.442Z" stroke="#145DB8" stroke-width="0.46875" stroke-linecap="round" stroke-linejoin="round"/>
<path d="M305.024 139.442L308.511 139.475C308.552 139.476 308.593 139.487 308.629 139.508C308.665 139.529 308.696 139.559 308.717 139.594L310.489 142.597C310.517 142.643 310.558 142.678 310.607 142.698C310.656 142.718 310.71 142.721 310.761 142.708C310.813 142.694 310.858 142.664 310.89 142.622C310.923 142.58 310.941 142.529 310.942 142.476L310.975 138.989C310.976 138.948 310.987 138.907 311.008 138.871C311.029 138.835 311.059 138.804 311.094 138.783L314.098 137.011C314.143 136.983 314.178 136.942 314.198 136.893C314.218 136.844 314.221 136.79 314.208 136.739C314.194 136.687 314.164 136.642 314.122 136.61C314.08 136.577 314.029 136.559 313.976 136.558L310.489 136.525C310.448 136.524 310.407 136.513 310.371 136.492C310.335 136.471 310.304 136.441 310.283 136.406L308.511 133.402C308.484 133.357 308.442 133.322 308.393 133.302C308.344 133.282 308.29 133.279 308.239 133.292C308.187 133.306 308.142 133.336 308.11 133.378C308.077 133.42 308.059 133.471 308.058 133.524L308.025 137.011C308.024 137.052 308.013 137.093 307.992 137.129C307.971 137.165 307.941 137.196 307.906 137.217L304.903 138.989C304.857 139.016 304.822 139.058 304.802 139.107C304.782 139.156 304.779 139.21 304.792 139.261C304.806 139.313 304.836 139.358 304.878 139.39C304.92 139.423 304.971 139.441 305.024 139.442Z" stroke="#145DB8" stroke-width="0.46875" stroke-linecap="round" stroke-linejoin="round"/>
<path d="M337.024 139.442L340.511 139.475C340.552 139.476 340.593 139.487 340.629 139.508C340.665 139.529 340.696 139.559 340.717 139.594L342.489 142.597C342.517 142.643 342.558 142.678 342.607 142.698C342.656 142.718 342.71 142.721 342.761 142.708C342.813 142.694 342.858 142.664 342.89 142.622C342.923 142.58 342.941 142.529 342.942 142.476L342.975 138.989C342.976 138.948 342.987 138.907 343.008 138.871C343.029 138.835 343.059 138.804 343.094 138.783L346.098 137.011C346.143 136.983 346.178 136.942 346.198 136.893C346.218 136.844 346.221 136.79 346.208 136.739C346.194 136.687 346.164 136.642 346.122 136.61C346.08 136.577 346.029 136.559 345.976 136.558L342.489 136.525C342.448 136.524 342.407 136.513 342.371 136.492C342.335 136.471 342.304 136.441 342.283 136.406L340.511 133.402C340.484 133.357 340.442 133.322 340.393 133.302C340.344 133.282 340.29 133.279 340.239 133.292C340.187 133.306 340.142 133.336 340.11 133.378C340.077 133.42 340.059 133.471 340.058 133.524L340.025 137.011C340.024 137.052 340.013 137.093 339.992 137.129C339.971 137.165 339.941 137.196 339.906 137.217L336.903 138.989C336.857 139.016 336.822 139.058 336.802 139.107C336.782 139.156 336.779 139.21 336.792 139.261C336.806 139.313 336.836 139.358 336.878 139.39C336.92 139.423 336.971 139.441 337.024 139.442Z" fill="url(#paint13_linear_1114_4155)" stroke="#145DB8" stroke-width="0.125" stroke-linecap="round" stroke-linejoin="round"/>
<defs>
<filter id="filter0_d_1114_4155" x="0" y="39" width="363" height="68" filterUnits="userSpaceOnUse" color-interpolation-filters="sRGB">
<feFlood flood-opacity="0" result="BackgroundImageFix"/>
<feColorMatrix in="SourceAlpha" type="matrix" values="0 0 0 0 0 0 0 0 0 0 0 0 0 0 0 0 0 0 127 0" result="hardAlpha"/>
<feOffset/>
<feGaussianBlur stdDeviation="6"/>
<feComposite in2="hardAlpha" operator="out"/>
<feColorMatrix type="matrix" values="0 0 0 0 0.2 0 0 0 0 0.2 0 0 0 0 0.2 0 0 0 0.1 0"/>
<feBlend mode="normal" in2="BackgroundImageFix" result="effect1_dropShadow_1114_4155"/>
<feBlend mode="normal" in="SourceGraphic" in2="effect1_dropShadow_1114_4155" result="shape"/>
</filter>
<linearGradient id="paint0_linear_1114_4155" x1="82.4908" y1="4.99195" x2="88.5092" y2="11.008" gradientUnits="userSpaceOnUse">
<stop stop-color="#1877F2"/>
<stop offset="0.5" stop-color="#1877F2"/>
<stop offset="1" stop-color="#1877F2"/>
</linearGradient>
<linearGradient id="paint1_linear_1114_4155" x1="210.491" y1="4.99195" x2="216.509" y2="11.008" gradientUnits="userSpaceOnUse">
<stop stop-color="#1877F2"/>
<stop offset="0.5" stop-color="#1877F2"/>
<stop offset="1" stop-color="#1877F2"/>
</linearGradient>
<linearGradient id="paint2_linear_1114_4155" x1="338.491" y1="4.99195" x2="344.509" y2="11.008" gradientUnits="userSpaceOnUse">
<stop stop-color="#1877F2"/>
<stop offset="0.5" stop-color="#1877F2"/>
<stop offset="1" stop-color="#1877F2"/>
</linearGradient>
<linearGradient id="paint3_linear_1114_4155" x1="82.4908" y1="31.9919" x2="88.5092" y2="38.008" gradientUnits="userSpaceOnUse">
<stop stop-color="#1877F2"/>
<stop offset="0.5" stop-color="#1877F2"/>
<stop offset="1" stop-color="#1877F2"/>
</linearGradient>
<linearGradient id="paint4_linear_1114_4155" x1="210.491" y1="31.9919" x2="216.509" y2="38.008" gradientUnits="userSpaceOnUse">
<stop stop-color="#1877F2"/>
<stop offset="0.5" stop-color="#1877F2"/>
<stop offset="1" stop-color="#1877F2"/>
</linearGradient>
<linearGradient id="paint5_linear_1114_4155" x1="338.491" y1="31.9919" x2="344.509" y2="38.008" gradientUnits="userSpaceOnUse">
<stop stop-color="#1877F2"/>
<stop offset="0.5" stop-color="#1877F2"/>
<stop offset="1" stop-color="#1877F2"/>
</linearGradient>
<linearGradient id="paint6_linear_1114_4155" x1="183.5" y1="83" x2="183.5" y2="95" gradientUnits="userSpaceOnUse">
<stop stop-color="white" stop-opacity="0"/>
<stop offset="1" stop-color="white"/>
</linearGradient>
<linearGradient id="paint7_linear_1114_4155" x1="526.5" y1="63" x2="526.5" y2="75" gradientUnits="userSpaceOnUse">
<stop stop-color="white" stop-opacity="0"/>
<stop offset="1" stop-color="white"/>
</linearGradient>
<linearGradient id="paint8_linear_1114_4155" x1="82.4908" y1="107.992" x2="88.5092" y2="114.008" gradientUnits="userSpaceOnUse">
<stop stop-color="#1877F2"/>
<stop offset="0.5" stop-color="#1877F2"/>
<stop offset="1" stop-color="#1877F2"/>
</linearGradient>
<linearGradient id="paint9_linear_1114_4155" x1="210.491" y1="107.992" x2="216.509" y2="114.008" gradientUnits="userSpaceOnUse">
<stop stop-color="#1877F2"/>
<stop offset="0.5" stop-color="#1877F2"/>
<stop offset="1" stop-color="#1877F2"/>
</linearGradient>
<linearGradient id="paint10_linear_1114_4155" x1="338.491" y1="107.992" x2="344.509" y2="114.008" gradientUnits="userSpaceOnUse">
<stop stop-color="#1877F2"/>
<stop offset="0.5" stop-color="#1877F2"/>
<stop offset="1" stop-color="#1877F2"/>
</linearGradient>
<linearGradient id="paint11_linear_1114_4155" x1="82.4908" y1="134.992" x2="88.5092" y2="141.008" gradientUnits="userSpaceOnUse">
<stop stop-color="#1877F2"/>
<stop offset="0.5" stop-color="#1877F2"/>
<stop offset="1" stop-color="#1877F2"/>
</linearGradient>
<linearGradient id="paint12_linear_1114_4155" x1="210.491" y1="134.992" x2="216.509" y2="141.008" gradientUnits="userSpaceOnUse">
<stop stop-color="#1877F2"/>
<stop offset="0.5" stop-color="#1877F2"/>
<stop offset="1" stop-color="#1877F2"/>
</linearGradient>
<linearGradient id="paint13_linear_1114_4155" x1="338.491" y1="134.992" x2="344.509" y2="141.008" gradientUnits="userSpaceOnUse">
<stop stop-color="#1877F2"/>
<stop offset="0.5" stop-color="#1877F2"/>
<stop offset="1" stop-color="#1877F2"/>
</linearGradient>
<clipPath id="clip0_1114_4155">
<rect x="12" y="51" width="339" height="44" rx="12" fill="white"/>
</clipPath>
</defs>
</svg>
