<svg width="40" height="40" viewBox="0 0 40 40" fill="none" xmlns="http://www.w3.org/2000/svg">
<path d="M1.6 7.44C0.71652 7.44 0 8.15632 0 9.04V30.96C0 31.8436 0.71688 32.56 1.6 32.56H38.4C39.2835 32.56 40 31.8437 40 30.96V9.04C40 8.15636 39.2831 7.44 38.4 7.44H1.6ZM23.89 14.9262C24.8635 14.9262 25.6437 15.1413 26.1412 15.3412L25.8012 17.48L25.5762 17.3662C25.1128 17.1663 24.5174 16.9738 23.6962 16.9875C22.7132 16.9875 22.2588 17.426 22.2588 17.8363C22.253 18.2986 22.7898 18.6034 23.6675 19.06C25.1162 19.7644 25.7857 20.6185 25.7763 21.7412C25.7568 23.7899 24.0433 25.1138 21.4038 25.1138C20.2776 25.1014 19.1927 24.863 18.6062 24.5875L18.9588 22.3775L19.2825 22.535C20.1072 22.9035 20.6412 23.0525 21.6462 23.0525C22.368 23.0525 23.1426 22.7503 23.1488 22.0888C23.1534 21.6568 22.825 21.3488 21.8475 20.865C20.895 20.3928 19.6323 19.6019 19.6463 18.1838C19.6612 16.2653 21.4088 14.9262 23.89 14.9262ZM3.53748 15.24H7.59124C8.13712 15.2606 8.57784 15.4364 8.73 16.0288L9.60376 20.5388C9.60388 20.5392 9.6036 20.5408 9.60376 20.5412L9.86624 21.8925L12.3275 15.24H14.99L11.0325 24.9775L8.37248 24.98L6.255 17.1225C7.51492 17.79 8.58756 18.5622 9.20876 19.625C9.0486 19.2887 8.83756 18.9091 8.56752 18.535C8.25304 18.0993 7.57388 17.5368 7.29 17.2975C6.3008 16.4636 4.9574 15.7901 3.50624 15.4338L3.53748 15.24ZM16.0488 15.2512H18.6525L17.0237 24.9738H14.42L16.0488 15.2512ZM30.755 15.2512H32.7275L34.7925 24.9738H32.425C32.425 24.9738 32.1901 23.8568 32.1138 23.5162C31.7416 23.5162 29.1391 23.5125 28.8462 23.5125C28.7472 23.7757 28.3088 24.9737 28.3088 24.9737H25.63L29.4188 16.0588C29.687 15.4252 30.1442 15.2512 30.755 15.2512ZM30.9488 17.8662C30.8206 18.2279 30.5976 18.8119 30.6125 18.7862C30.6125 18.7862 29.811 20.9238 29.6013 21.4788L31.7075 21.4775C31.5118 20.5504 31.316 19.6233 31.12 18.6963L30.9488 17.8663V17.8662Z" fill="#145DB8"/>
</svg>
